<svg
      width="112"
      height="48"
      viewBox="0 0 311 59"
      fill="none"
      xmlns="http://www.w3.org/2000/svg">
      <path
        d="M106.526 28.9419H96.1055C95.2037 30.676 93.9012 32.171 92.1779 33.1277C88.8916 35.2804 84.3027 35.1608 81.0364 33.0879C78.0907 31.2541 76.3474 27.746 76.2271 24.2777C75.9867 19.4541 79.4534 14.5706 84.3027 13.6537C85.8256 13.3747 87.3085 13.3149 88.8314 13.5939C91.9976 14.172 94.843 16.4642 96.0654 19.4142H106.445C106.185 17.2216 105.123 15.1487 103.961 13.3149C101.496 9.28853 97.5683 6.2588 93.0596 4.84359C88.3104 3.42839 82.9802 3.58785 78.4113 5.56116C72.4599 8.03278 68.0113 13.6537 66.7488 19.9324C64.9654 27.8456 68.6525 36.6358 75.6059 40.9811C79.9744 43.8514 85.4048 44.7483 90.5147 43.9112C98.2095 42.6156 104.842 36.5362 106.526 28.9419Z"
        fill="currentColor"
      />
      <path
        fillRule="evenodd"
        clipRule="evenodd"
        d="M125.502 35.3202H133.517C131.834 39.4662 128.207 43.0341 123.759 44.0108C117.867 45.4858 111.194 42.5159 108.489 37.1142C106.345 33.1875 106.285 28.2642 108.269 24.2179C110.172 20.3311 113.92 17.2017 118.248 16.5838C121.314 16.1452 124.56 16.5838 127.345 18.0986C132.475 20.8493 135.321 27.1081 134.319 32.8088H114.561C114.721 35.2804 116.985 37.2138 119.41 37.5128C121.194 37.7321 123.177 37.3534 124.56 36.1973C124.841 35.8983 125.141 35.6192 125.502 35.3202ZM126.584 27.5067C126.183 25.4338 124.4 23.6996 122.296 23.2611C121.254 23.0219 120.232 23.0219 119.19 23.2213C116.985 23.5402 115.022 25.374 114.621 27.5067H126.584ZM135.201 30.4567C135.161 24.5368 139.128 18.5571 145.08 17.0422C150.23 15.627 156.361 16.7233 160.029 20.7696C162.493 23.5402 163.876 27.2675 163.716 30.975C163.615 34.2838 162.253 37.6324 160.029 40.104C156.361 44.1902 150.29 45.2865 145.16 43.8513C141.633 42.9145 138.487 40.4628 136.844 37.2138C135.682 35.1608 135.201 32.749 135.201 30.4567ZM143.016 30.3969C143.016 32.1311 143.597 33.7655 144.799 35.0611C146.763 37.2138 150.23 37.6922 152.775 36.1973C156.181 34.1841 156.943 29.0017 154.338 26.0118C152.915 24.178 150.35 23.3807 148.025 23.899C145.08 24.5767 142.956 27.4669 143.016 30.3969Z"
        fill="currentColor"
      />
      <path
        d="M167.042 43.4327V13.4344H159.388V4.7439H184.596V13.4344H176.942V43.4327H167.042ZM180.268 43.5523V17.3412H187.823V20.0919C188.123 19.5138 188.344 18.876 188.804 18.3577C190.187 16.8827 192.331 16.3645 194.355 16.4243V24.2777C193.033 24.2777 191.71 24.4172 190.488 24.9155C188.804 25.4936 187.943 27.3473 188.123 29.0415V43.5523H180.268Z"
        fill="currentColor"
      />
      <path
        fillRule="evenodd"
        clipRule="evenodd"
        d="M194.174 30.4567C194.134 24.5368 198.122 18.5571 204.074 17.0422C209.203 15.6868 215.355 16.7233 219.002 20.7696C221.467 23.5402 222.85 27.2675 222.689 30.975C222.589 34.2838 221.247 37.6324 219.002 40.104C214.413 45.1669 206.158 45.7449 200.487 42.2368C196.439 39.7652 194.074 35.101 194.174 30.4567ZM201.99 30.3969C201.99 32.1311 202.571 33.7655 203.713 35.0611C205.677 37.174 209.143 37.6922 211.708 36.1973C214.153 34.7621 215.295 31.6527 214.714 28.9419C214.153 25.5733 210.426 23.0219 207.039 23.899C204.074 24.5767 201.929 27.4669 201.99 30.3969Z"
        fill="currentColor"
      />
      <path
        d="M224.132 43.5524V17.3412H231.647V20.0919C232.749 17.7798 235.294 16.7233 237.719 16.4642C240.604 16.245 243.81 16.9825 245.874 19.0754C247.197 20.3909 248.079 22.125 248.299 23.9588C248.419 24.9953 248.459 26.0717 248.459 27.1081V43.4926H240.604V29.1811C240.604 27.6264 240.564 25.8524 239.342 24.7561C237.438 23.0818 234.132 23.5402 232.749 25.5733C232.128 26.5301 232.008 27.6862 231.947 28.8223V43.4926H224.132V43.5524ZM258.939 17.3412V43.5524H251.144V17.3412H258.939ZM258.939 8.61084V14.5308H251.144V8.61084H258.939ZM280.641 33.6061H288.617C287.615 37.9912 284.389 41.7186 280.241 43.3929C275.431 45.3264 269.54 44.5291 265.592 41.0808C260.683 37.0544 259.3 29.52 262.206 23.9588C264.15 20.1517 267.897 17.3014 272.125 16.5838C276.814 15.7865 281.864 17.3412 285.09 20.7696C286.813 22.6433 288.096 24.9156 288.557 27.4071H280.501C279.479 24.6963 276.353 23.321 273.588 23.8392C271.904 24.1183 270.341 25.1548 269.48 26.5899C267.636 29.5798 268.217 34.1842 271.383 36.0777C272.766 36.9946 274.55 37.174 276.173 36.895C278.076 36.596 279.599 35.2206 280.641 33.6061ZM309.998 24.6963H302.263C302.263 23.7994 301.842 22.7031 300.88 22.3443C300.119 22.125 299.317 22.1649 298.616 22.3842C297.454 22.8625 296.993 24.4173 297.734 25.374C297.995 25.7328 298.315 25.9521 298.676 26.1912C300.941 27.3473 303.465 27.6862 305.79 28.5632C307.994 29.3605 309.898 31.0747 310.539 33.3271C311.22 35.6193 310.759 38.2105 309.317 40.1439C306.311 44.0706 300.68 45.2267 296.091 43.9112C293.005 42.9744 290.3 40.5027 289.559 37.3534C289.418 36.8352 289.358 36.3169 289.298 35.7389H297.153C297.213 36.5362 297.514 37.473 298.255 37.9115C299.357 38.6689 300.941 38.6689 302.043 37.9115C303.105 37.2139 303.105 35.4997 302.203 34.6426C301.522 34.0646 300.68 33.7058 299.838 33.4865C297.113 32.6494 293.887 32.5098 291.783 30.3372C289.599 28.2044 288.897 24.6365 290.3 21.8659C292.785 16.9825 299.317 15.3679 304.267 17.1021C307.112 18.1385 309.477 20.67 309.898 23.6997C309.958 24.0585 309.998 24.3375 309.998 24.6963Z"
        fill="currentColor"
      />
      <g clipPath="url(#clip0_577_31)">
        <path
          d="M31.5031 25.0295C31.0517 24.122 30.5557 23.2502 30.431 22.2356C30.1043 20.4414 30.5557 18.5996 31.5031 17.0732H49.8466V25.0295H44.522V45.8872H49.8466C50.595 45.7771 51.4027 45.6849 52.0887 45.3249C53.0687 44.7803 53.8646 43.8907 54.3605 42.8612C54.6723 42.1263 54.7198 41.3765 54.7673 40.5672V25.7615H55.9819V40.9242C55.9047 41.8615 55.8097 42.8612 55.3732 43.7479C54.6723 45.0273 53.5676 46.0122 52.3055 46.5894C51.4027 46.9941 50.4227 46.9941 49.4724 46.9941H16.1054C15.1551 46.9167 14.2048 46.8215 13.3495 46.4168C12.1349 45.7771 11.152 44.7476 10.5759 43.5158C10.1572 42.6886 10.1245 41.7365 10.0176 40.7992V7.63223C10.1245 6.65034 10.1572 5.63572 10.5759 4.73119C11.1847 3.45176 12.2597 2.31218 13.5663 1.64271C14.4691 1.19044 15.4521 1.11308 16.4469 1.00299H49.5675C50.5 1.11308 51.4502 1.15771 52.3055 1.60998C53.5676 2.21994 54.6426 3.24943 55.2663 4.52886C55.7176 5.38578 55.8097 6.37065 55.9047 7.30493V16.2133H54.6723V7.67983C54.6426 6.85267 54.5951 5.99575 54.2387 5.24594C53.7398 4.15396 52.7896 3.24943 51.7294 2.71981C50.9989 2.35978 50.1436 2.26754 49.3477 2.21994H16.4469C15.6837 2.31218 14.9205 2.35978 14.2048 2.6722C13.21 3.17207 12.3666 3.98139 11.7756 4.93352C11.3569 5.58811 11.2767 6.37065 11.1847 7.13533V40.9242C11.2767 41.6264 11.3242 42.4089 11.636 43.0635C12.1349 44.0305 12.9427 44.825 13.893 45.3249C14.5493 45.6849 15.3273 45.7295 16.0579 45.8098H36.5812V25.0295H31.5031Z"
          fill="currentColor"
        />
        <path
          d="M33.8701 27.7728C34.571 27.2908 35.1471 26.6987 35.7232 26.1215V35.3869C33.3415 36.2141 30.8351 36.9936 28.2664 36.7913C24.7473 36.5116 21.353 35.0745 18.7664 32.6882C14.9207 29.1772 13.1627 23.6697 14.018 18.5996C14.6416 14.559 16.9312 10.7832 20.3255 8.382C24.2959 5.46609 29.6977 4.60619 34.369 6.24565C37.8881 7.40011 41.0329 9.81615 42.8712 13.0623C43.4621 14.1067 43.9462 15.279 44.35 16.4008H35.6311C33.5138 13.342 29.0444 12.3601 25.8045 14.1067C24.3732 14.8565 23.1437 16.0883 22.3805 17.5255C20.8541 20.4414 21.3827 24.2797 23.6426 26.666C24.7147 27.8204 26.1015 28.7577 27.6903 29.0374C29.7928 29.3171 32.0794 29.0076 33.8701 27.7728Z"
          fill="currentColor"
        />
        <path
          d="M27.6901 14.9666C27.0516 15.4635 26.3805 15.9485 25.8044 16.5406C23.5949 19.0072 23.5474 23.0925 25.6975 25.6365C26.2558 26.2464 26.912 26.7433 27.5327 27.2432L26.8319 27.6955C25.4332 26.9784 24.0938 25.9787 23.3603 24.4969C21.7894 21.6583 22.5199 17.8528 24.9788 15.7135C25.6024 15.2314 26.3359 14.8565 27.0516 14.4816L27.6901 14.9666Z"
          fill="currentColor"
        />
        <path
          d="M29.1694 15.8086C28.3913 16.6656 27.643 17.5255 27.2391 18.5996C26.7075 20.1766 26.6303 21.938 27.2391 23.5001C27.5954 24.5772 28.3586 25.4817 29.1218 26.3387L28.2666 26.8385C27.4885 26.1215 26.6303 25.4014 26.1938 24.4046C25.1217 22.2832 25.1663 19.7243 26.2888 17.6504C26.7877 16.7132 27.643 15.9634 28.4359 15.2612L29.1694 15.8086Z"
          fill="currentColor"
        />
        <path
          d="M29.6979 23.3275C29.98 24.0446 30.4314 24.7319 30.7729 25.3568L29.8701 25.934C29.294 25.1366 28.6704 24.2797 28.3586 23.2978C27.9072 21.8309 27.9072 20.2688 28.3586 18.8347C28.6704 17.8349 29.294 16.978 29.9325 16.1657L30.7729 16.7429C30.1968 17.71 29.5732 18.6621 29.4187 19.7719C29.2168 20.9561 29.2465 22.2058 29.6979 23.3275Z"
          fill="currentColor"
        />
        <path
          d="M51.9019 17.0732V24.9819H50.7349V17.0732H51.9019Z"
          fill="currentColor"
        />
        <path
          d="M53.8646 17.0732V25.092H52.7124V17.0732H53.8646Z"
          fill="currentColor"
        />
        <path
          d="M55.9497 17.0732V25.0295L54.7202 25.092V17.0732H55.9497Z"
          fill="currentColor"
        />
      </g>
      <defs>
        <clipPath id="clip0_577_31">
          <rect
            width="46"
            height="46"
            fill="white"
            transform="translate(10 1)"
          />
        </clipPath>
      </defs>
    </svg>