<svg
      width="112"
      height="48"
      viewBox="0 0 487 66"
      fill="none"
      xmlns="http://www.w3.org/2000/svg">
      <path
        fillRule="evenodd"
        clipRule="evenodd"
        d="M435.249 0.185817C434.108 0.435541 433.442 0.801331 432.454 1.721C430.025 3.98167 429.908 7.70134 432.193 9.99788C433.58 11.3921 435.118 11.9887 436.964 11.8487C440.592 11.5738 443.07 8.04718 442.145 4.47557C441.571 2.26255 439.708 0.545511 437.415 0.118087C436.503 -0.0519967 436.308 -0.0459006 435.249 0.185817ZM318.593 7.53666C315.709 8.51173 315.088 8.76893 314.771 9.12087L314.392 9.54096V32.2226C314.392 52.9679 314.411 54.9319 314.617 55.2268C315.054 55.8549 315.534 55.9355 318.83 55.9352C322.559 55.9351 322.62 55.9158 323.347 54.5266L323.83 53.6025L324.38 53.9453C326.157 55.0533 328.608 56.0074 330.97 56.511C332.826 56.9067 336.192 56.941 338.016 56.5831C341.032 55.991 343.234 55.1004 345.589 53.5207C348.247 51.7367 350.834 48.7841 352.11 46.0781C352.776 44.6651 353.622 41.9862 353.874 40.4922C354.195 38.5888 354.189 35.1184 353.862 33.3593C353.379 30.7658 352.384 28.1895 351.094 26.1915C347.703 20.9406 342.53 17.7346 336.492 17.1417C334.591 16.9551 332.593 17.118 330.636 17.6192C329.08 18.0177 326.383 19.2112 325.178 20.0339C324.709 20.3545 324.291 20.6169 324.249 20.6169C324.207 20.6169 324.172 17.6522 324.172 14.0288C324.172 7.16616 324.165 7.0807 323.571 6.59635C323.031 6.15702 322.222 6.30993 318.593 7.53666ZM25.9518 8.51547C21.1954 9.11478 16.7848 10.6281 13.4537 12.8033C10.8295 14.517 9.40917 15.7183 7.49146 17.8464C5.27485 20.3062 4.38818 21.6033 2.9621 24.4726C0.862708 28.6969 0 32.3942 0 37.1681C0 42.1148 0.886124 45.8409 3.10742 50.2348C4.5937 53.175 5.95325 55.043 8.64977 57.85C9.51275 58.7485 11.8853 60.6083 13.5268 61.6732C15.919 63.2253 19.7646 64.7476 22.9937 65.4208C27.6024 66.3818 32.4199 66.1234 37.1062 64.6639L38.5494 64.2144L37.6991 63.4337C36.4348 62.2729 34.3248 59.7884 33.2908 58.2431L32.3788 56.8802L31.8858 56.9635C31.6147 57.0092 30.37 57.084 29.1199 57.1294C26.5576 57.2227 25.3348 57.0704 22.7148 56.3312C18.723 55.205 14.9168 52.393 12.148 48.5243C11.4025 47.4827 10.0161 44.5546 9.56069 43.0601C8.33736 39.046 8.36491 34.946 9.64141 31.0569C10.8132 27.4863 13.1133 24.0746 15.8668 21.8228C18.7729 19.4465 21.3666 18.2437 25.2407 17.4763C26.8689 17.1537 30.2715 17.1543 31.9026 17.4773C34.7634 18.0439 36.7649 18.7881 38.7622 20.028C42.1438 22.127 44.7401 24.8922 46.3385 28.0972C47.723 30.8734 48.262 32.7751 48.8171 36.8432C49.1328 39.1568 49.5787 41.004 50.1783 42.4834C51.8307 46.5598 56.0163 49.6233 60.6222 50.1272C63.2558 50.4151 66.041 49.818 68.4682 48.445C69.9713 47.5949 72.3437 45.2079 73.1914 43.6931C74.4762 41.3971 74.9544 39.2352 74.8036 36.4064C74.6962 34.3925 74.4466 33.3546 73.6766 31.7204C70.774 25.5591 63.8598 22.6982 57.5144 25.0328C56.8808 25.2659 56.0949 25.6142 55.768 25.8069C55.4412 25.9994 55.144 26.157 55.1078 26.157C55.0716 26.157 54.6512 25.3623 54.1736 24.3911C53.1881 22.3868 51.7554 20.1576 50.7002 18.9872C50.3065 18.5504 49.6222 17.7707 49.1795 17.2545C48.2857 16.212 46.0951 14.3871 44.2089 13.1134C41.1952 11.0784 37.1685 9.50993 33.0457 8.76533C31.8443 8.54843 27.0349 8.3789 25.9518 8.51547ZM58.391 8.64497C57.6334 8.74829 56.5486 8.93528 55.9804 9.06062C55.0067 9.2753 52.4704 10.0375 52.2112 10.1933C52.1457 10.2326 52.6127 10.771 53.2489 11.3896C54.7052 12.8055 56.3767 14.8338 57.3579 16.3755C58.0291 17.43 58.1548 17.5584 58.4599 17.5015C58.6493 17.466 59.5882 17.3615 60.5462 17.2691C62.0427 17.1246 62.5474 17.1334 64.1276 17.3306C66.1781 17.5865 68.7758 18.2714 70.2341 18.9406C71.4069 19.4786 73.9286 21.1562 75.0788 22.1634C79.1667 25.7431 81.6059 30.8619 81.8328 36.3371C81.9824 39.9463 81.2684 43.1542 79.5266 46.6981C78.9002 47.9727 76.9325 50.5039 75.5693 51.7881C71.9243 55.2227 67.7577 56.9592 62.7278 57.1399C60.269 57.2283 58.9034 57.0819 56.5558 56.4787C53.0204 55.5701 49.2726 53.1898 46.811 50.2892C45.5757 48.8337 44.9484 47.8533 43.999 45.8939C42.8087 43.4377 42.256 41.5237 41.8635 38.4999C41.6051 36.5093 41.0832 33.8562 40.7569 32.8745C39.4535 28.9547 36.0827 25.8422 31.806 24.6097C30.2546 24.1626 26.9628 24.1597 25.3617 24.604C23.0123 25.2561 20.9155 26.5213 19.1938 28.326C16.9203 30.7091 15.9179 33.1796 15.7944 36.7042C15.6579 40.5982 16.7564 43.5903 19.2711 46.1737C23.3797 50.3945 29.2347 51.393 34.4385 48.7603L35.4786 48.234L36.5051 50.241C37.8069 52.7863 38.6893 54.1122 40.2953 55.9355C42.1264 58.0144 42.8415 58.6914 44.6588 60.0655C47.5982 62.2881 49.5615 63.3403 52.8123 64.4352C59.3507 66.6374 65.5506 66.5175 72.1866 64.0606C80.6535 60.9255 87.4244 53.2898 89.7077 44.3011C90.5755 40.8853 90.8293 36.569 90.3513 33.3593C89.0072 24.3345 83.8199 16.6468 76.0596 12.1781C72.8358 10.3217 68.7313 8.99622 64.9049 8.57558C63.1278 8.38015 60.0952 8.41242 58.391 8.64497ZM413.776 8.82461C413.17 9.03943 411.496 9.60716 410.057 10.0862C408.34 10.6579 407.321 11.0713 407.095 11.2886C406.752 11.6185 406.751 11.6313 406.682 14.7678L406.613 17.916L405.167 17.9883C402.717 18.1109 402.687 18.1622 402.687 22.3418C402.687 26.5692 402.696 26.5843 405.167 26.7079L406.613 26.7803L406.694 35.3676C406.784 44.9486 406.764 44.7274 407.798 47.4213C408.688 49.7376 409.81 51.2294 411.964 52.9626C414.34 54.8743 417.488 55.9395 422.005 56.3607C423.95 56.542 424.373 56.4635 424.869 55.8288C425.123 55.5049 425.14 55.2522 425.14 51.8895V48.2964L424.75 47.9044C424.443 47.5959 424.187 47.4935 423.545 47.4231C421.024 47.1467 419.477 46.5164 418.214 45.2506C417.316 44.3515 416.792 43.3411 416.595 42.1295C416.523 41.686 416.463 38.0355 416.463 34.0172L416.462 26.7111H419.893H423.324L423.888 26.0339L424.451 25.3568V22.1867C424.451 19.4799 424.419 18.9694 424.227 18.694C423.784 18.0581 423.326 17.9853 419.772 17.9853H416.462V13.7225C416.462 8.99469 416.464 9.00425 415.553 8.62157C414.971 8.37697 415.071 8.36547 413.776 8.82461ZM129.744 17.157C125.108 17.6756 120.759 19.7196 117.693 22.8202C115.055 25.4879 113.603 28.2364 112.643 32.378C112.172 34.4122 112.05 37.9015 112.374 40.1085C113.179 45.588 116.031 50.0096 120.861 53.2635C123.159 54.8117 126.221 56.0076 129.33 56.5708C131.207 56.9107 134.864 56.9093 136.763 56.5679C140.987 55.8085 144.017 54.45 146.969 51.9928C148.347 50.8454 148.687 50.3984 148.679 49.7443C148.672 49.1975 148.443 48.8521 147.631 48.1597C147.241 47.8277 146.193 46.881 145.303 46.056C144.413 45.231 143.523 44.4941 143.326 44.4184C142.775 44.2073 142.219 44.3884 141.472 45.0216C140.414 45.9184 138.688 46.9006 137.466 47.3004C135.967 47.7914 132.801 47.9207 131.045 47.5628C127.41 46.8223 124.648 44.6374 123.244 41.3925L122.795 40.3537L136.508 40.2845L150.222 40.2152L150.643 39.7403L151.066 39.2654L150.977 37.5242C150.863 35.2971 150.444 32.4904 150.014 31.074C148.386 25.7151 144.864 21.2458 140.625 19.1604C139.05 18.3853 136.834 17.6421 135.294 17.3725C133.745 17.1015 131.143 17.0005 129.744 17.157ZM173.34 17.1731C170.796 17.4351 167.241 18.6151 165.104 19.9072C162.581 21.4327 160.446 23.4868 158.866 25.9095C156.311 29.8262 155.507 32.5449 155.515 37.2374C155.521 40.1409 155.756 41.5981 156.605 43.9866C157.414 46.2619 159.486 49.5119 161.066 50.9831C164.448 54.1313 167.492 55.6791 172.073 56.5805C173.72 56.9046 177.348 56.9058 179.126 56.5827C183.34 55.8166 186.526 54.4054 189.319 52.0678C190.644 50.9583 190.827 50.7169 190.831 50.0745C190.835 49.3183 190.694 49.1263 189.278 47.9686C188.581 47.3981 187.359 46.3724 186.564 45.6892C185.133 44.4605 184.634 44.195 184.083 44.3709C183.927 44.4207 183.104 44.9339 182.255 45.5116C179.697 47.2508 178.215 47.7637 175.748 47.7637C173.941 47.7637 173 47.5515 171.481 46.8015C169.415 45.7819 167.808 44.1809 166.87 42.2072C165.986 40.3478 165.725 39.1506 165.729 36.9604C165.733 34.731 166 33.5323 166.917 31.628C167.618 30.1741 168.394 29.1722 169.47 28.3334C171.509 26.745 172.986 26.2338 175.544 26.2313C178.356 26.2287 180.14 26.8447 182.553 28.6518C183.952 29.699 184.396 29.8274 185.059 29.3763C185.519 29.0638 189.192 25.8631 190.042 25.0342C190.626 24.4642 190.696 24.3313 190.696 23.7893C190.696 23.2192 190.638 23.1264 189.73 22.2489C187.942 20.5207 185.906 19.3447 182.982 18.3508C179.644 17.2158 176.57 16.8404 173.34 17.1731ZM213.631 17.0976C209.351 17.5169 205.528 18.9706 202.542 21.3147C196.678 25.9179 193.929 33.146 195.178 40.6765C195.851 44.7308 198.131 48.9351 200.996 51.4006C203.977 53.9668 205.869 55.0232 209.246 56.0078C211.364 56.6254 212.771 56.8187 215.146 56.8187C218.637 56.8187 221.565 56.1416 224.651 54.6211C228.225 52.8596 230.668 50.61 232.899 47.0261C235.551 42.7651 236.183 36.2011 234.479 30.6195C233.124 26.1796 229.115 21.5192 224.761 19.3207C223.376 18.6214 220.354 17.637 218.796 17.3775C217.458 17.1547 214.619 17.0008 213.631 17.0976ZM284.777 17.1462C281.386 17.5104 277.971 18.7342 275.236 20.5652C273.588 21.6684 270.916 24.2788 270.008 25.6723C268.42 28.1107 267.215 31.1278 266.786 33.742C266.491 35.5366 266.491 38.8389 266.785 40.5615C267.26 43.3375 268.517 46.3564 270.153 48.6489C271.141 50.0331 273.463 52.2489 275.047 53.3194C277.363 54.8835 280.25 56.0252 283.315 56.5881C285.006 56.8988 288.539 56.8998 290.218 56.5901C294.932 55.7204 298.528 53.8946 301.589 50.8176C303.666 48.7288 305.229 46.2799 306.038 43.8434C306.746 41.7123 307.011 39.8988 307.012 37.1681C307.014 34.4891 306.848 33.218 306.197 30.9354C304.883 26.3277 300.888 21.5922 296.403 19.3278C295.022 18.6306 291.966 17.6284 290.442 17.3731C288.848 17.1062 286.154 16.9983 284.777 17.1462ZM377.962 17.0973C374.014 17.4857 370.33 18.803 367.452 20.8555C366.156 21.7798 364.085 23.8127 363.133 25.0953C359.295 30.2692 358.166 37.3312 360.199 43.4479C361.115 46.2026 362.678 48.7931 364.575 50.7006C368.561 54.7086 373.724 56.8291 379.477 56.8207C382.977 56.8155 385.903 56.1385 388.982 54.6212C392.186 53.042 394.7 50.8488 396.626 47.9532C398.872 44.5767 399.712 41.6211 399.713 37.0989C399.713 34.4891 399.443 32.6468 398.741 30.4726C397.243 25.8371 393.145 21.2113 388.712 19.1519C387.183 18.4419 384.658 17.6372 383.145 17.3779C381.836 17.1537 378.968 16.9984 377.962 17.0973ZM261.773 17.2496C260.773 17.4169 258.641 18.0425 257.365 18.543C254.996 19.4726 253.485 20.4083 251.622 22.0983L250.493 23.1224L250.421 22.666C250.381 22.4151 250.278 21.5241 250.191 20.6861C249.909 17.9637 249.894 17.9554 245.459 18.0129C242.434 18.0519 242.208 18.0727 241.844 18.3448C241.63 18.5045 241.379 18.785 241.286 18.9681C241.153 19.2273 241.115 23.2173 241.115 36.9604C241.115 50.7035 241.153 54.6935 241.286 54.9527C241.379 55.1358 241.63 55.4162 241.844 55.5759C242.21 55.8492 242.433 55.8687 245.632 55.9097C249.655 55.9611 250.108 55.9131 250.638 55.3802L251.029 54.9873V44.6852V34.3831L251.446 33.7227C252.545 31.9799 255.62 29.5352 258.523 28.0975C260.147 27.2924 261.696 26.8068 263.208 26.6287C263.7 26.5705 263.99 26.4421 264.275 26.1558L264.666 25.7629V21.8847V18.0065L264.309 17.5804C263.973 17.1784 263.901 17.1554 263.035 17.1731C262.53 17.1835 261.963 17.2178 261.773 17.2496ZM432.76 18.1881C431.832 18.5936 431.89 17.3518 431.89 36.9445C431.89 47.8748 431.94 54.8043 432.021 55.019C432.094 55.2104 432.323 55.4793 432.531 55.6166C432.867 55.8377 433.32 55.8714 436.498 55.911C440.383 55.9594 440.916 55.8917 441.387 55.2902C441.669 54.9297 441.67 54.8752 441.67 36.9726C441.67 17.034 441.745 18.5919 440.761 18.1784C440.102 17.9016 433.396 17.9097 432.76 18.1881ZM448.488 18.1508C447.634 18.6381 447.768 18.9482 450.306 22.3299C451.572 24.0159 452.982 25.8691 453.44 26.4483C453.898 27.0275 454.755 28.1494 455.344 28.9414C455.933 29.7334 457.522 31.84 458.874 33.6229L461.334 36.8643L458.28 40.7558C456.6 42.8961 454.799 45.2083 454.277 45.8939C453.755 46.5795 452.791 47.7949 452.134 48.5948C451.477 49.3946 450.636 50.4646 450.265 50.9723C449.894 51.4802 449.099 52.5025 448.5 53.2443C447.345 54.6725 447.171 55.1556 447.643 55.6305C447.854 55.8419 448.374 55.8704 452.686 55.906C456.577 55.9381 457.584 55.9085 457.959 55.7507C458.327 55.5962 459.225 54.4806 462.283 50.3786C464.407 47.5312 466.293 44.9684 466.476 44.6837C466.659 44.399 466.839 44.1684 466.877 44.1715C466.915 44.1744 467.396 44.7813 467.945 45.5201C474.638 54.5211 475.479 55.5869 476.029 55.7672C476.439 55.9021 477.766 55.9358 481.49 55.9057C488.322 55.8509 488.164 56.0862 484.474 51.4817C483.659 50.4653 482.233 48.6665 481.306 47.4845C480.378 46.3025 478.596 44.0393 477.346 42.4553C476.096 40.8713 474.858 39.283 474.595 38.9258C474.333 38.5684 473.822 37.9046 473.462 37.4504C472.903 36.7475 472.831 36.5893 472.975 36.3877C473.068 36.2572 473.685 35.4446 474.346 34.5819C478.105 29.6709 479.294 28.1299 480.558 26.5267C481.33 25.5493 482.394 24.164 482.925 23.4483C483.455 22.7327 484.4 21.4964 485.025 20.7012C486.235 19.1626 486.373 18.7742 485.872 18.3184C485.601 18.0716 485.28 18.0519 480.918 18.0147C478.353 17.9928 476.05 18.0277 475.801 18.0924C475.22 18.2432 474.768 18.8102 471.566 23.407C470.167 25.4147 468.625 27.6012 468.139 28.2659L467.256 29.4744L466.888 28.9584C465.359 26.8079 462.763 23.0957 461.849 21.7507C460.269 19.4249 459.478 18.4281 459.024 18.1919C458.692 18.0198 457.804 17.986 453.695 17.9894C450.279 17.9924 448.679 18.0419 448.488 18.1508ZM133.869 25.5377C136.108 26.1242 137.737 27.5469 138.902 29.9332C139.281 30.7119 139.592 31.4274 139.592 31.5231C139.592 31.6609 137.899 31.6972 131.465 31.6972C126.995 31.6972 123.338 31.6643 123.338 31.624C123.338 31.5838 123.533 31.163 123.771 30.6891C124.438 29.3587 125.456 27.9191 126.187 27.2702C126.953 26.5906 128.4 25.8199 129.438 25.5389C130.419 25.2731 132.856 25.2724 133.869 25.5377ZM217.763 26.5126C219.28 26.922 220.682 27.7735 221.965 29.0644C223.297 30.4053 224.074 31.6686 224.743 33.5776C225.12 34.6547 225.184 35.0475 225.24 36.6325C225.32 38.8681 225.09 40.082 224.246 41.8773C223.133 44.2421 221.852 45.5791 219.588 46.7356C218.04 47.5263 217.031 47.7592 215.141 47.7616C213.276 47.7641 212.381 47.5515 210.699 46.7065C209.695 46.2025 209.173 45.8222 208.276 44.9403C206.997 43.6831 206.312 42.6327 205.671 40.9439C205.239 39.8073 205.236 39.7823 205.232 37.1681C205.229 34.7726 205.257 34.4496 205.55 33.567C206.072 31.9946 206.875 30.6004 207.919 29.453C209.538 27.673 211.247 26.7077 213.515 26.2926C214.439 26.1237 216.769 26.2443 217.763 26.5126ZM289.529 26.558C292.863 27.503 295.648 30.5918 296.636 34.4399C296.978 35.7693 297.011 38.1211 296.709 39.5625C296.446 40.8217 295.495 42.8485 294.629 43.9977C293.396 45.6338 291.177 47.081 289.185 47.5492C287.845 47.8641 285.491 47.8299 284.225 47.4773C281.515 46.7222 279.156 44.7544 277.864 42.1723C277.019 40.4827 276.764 39.3051 276.766 37.0989C276.768 34.8302 277.039 33.6184 277.97 31.7177C278.491 30.6539 278.817 30.2065 279.796 29.2144C281.512 27.476 282.935 26.7008 285.167 26.2893C286.147 26.1084 288.442 26.2498 289.529 26.558ZM336.615 26.5595C339.655 27.3609 342.328 30.0666 343.47 33.4978C344.28 35.9339 344.17 38.9136 343.181 41.3033C341.998 44.1583 339.86 46.2441 337.011 47.3205C336.238 47.6123 335.781 47.6797 334.22 47.7316C331.969 47.8064 331.169 47.6399 329.269 46.7018C326.931 45.5467 325.049 43.2947 324.08 40.4922C323.72 39.451 323.697 39.2424 323.694 37.0296C323.691 34.4469 323.789 33.9389 324.654 32.0435C325.97 29.1591 328.756 26.9087 331.679 26.3676C333.1 26.1046 335.198 26.1863 336.615 26.5595ZM382.086 26.5113C385.236 27.3659 387.811 29.9699 389.074 33.5776C389.451 34.6547 389.515 35.0475 389.571 36.6325C389.654 38.9392 389.42 40.1103 388.498 42.0158C387.374 44.3385 386.105 45.6371 383.84 46.7823C382.37 47.5254 381.331 47.7592 379.487 47.7616C377.639 47.7641 376.334 47.4428 374.826 46.6134C372.289 45.2188 370.44 42.8292 369.679 39.9623C369.364 38.7744 369.364 35.5814 369.68 34.2596C370.075 32.6071 371.118 30.6546 372.271 29.4116C373.906 27.6482 375.591 26.7054 377.846 26.2926C378.769 26.1238 381.101 26.2442 382.086 26.5113ZM30.2121 32.2132C31.5746 32.6695 32.6536 33.649 33.3054 35.0213C33.6891 35.8291 33.7322 36.0496 33.7244 37.1681C33.7141 38.6726 33.376 39.6698 32.5611 40.6007C30.9539 42.4367 28.5674 42.9794 26.482 41.9832C25.244 41.3918 24.5274 40.7118 23.9947 39.623C23.5649 38.7445 23.5412 38.6163 23.5419 37.1704C23.5426 35.7285 23.5664 35.5986 23.9768 34.8084C24.4994 33.8018 25.434 32.9015 26.434 32.4411C27.7786 31.8222 28.8515 31.7575 30.2121 32.2132ZM63.7573 32.2798C65.3683 32.9098 66.6847 34.3576 66.9985 35.8443C67.2313 36.9472 67.122 38.5163 66.7547 39.3497C66.3271 40.3193 65.1859 41.4601 64.1177 41.9857C63.3017 42.3873 63.0894 42.4313 61.9695 42.4313C60.8367 42.4313 60.6436 42.39 59.7831 41.9641C58.5855 41.3713 57.859 40.64 57.3098 39.4744C56.913 38.632 56.8758 38.4346 56.8758 37.1681C56.8758 35.885 56.909 35.715 57.326 34.8578C58.4989 32.4468 61.3065 31.3215 63.7573 32.2798Z"
        fill="currentColor"
      />
    </svg>