<svg
      width="112"
      height="48"
      viewBox="0 0 465 106"
      fill="none"
      xmlns="http://www.w3.org/2000/svg">
      <path
        fillRule="evenodd"
        clipRule="evenodd"
        d="M135.238 0.628478C133.783 1.02294 131.668 2.08152 130.539 2.98031C127.847 5.12297 125.446 9.8488 125.446 13.0023C125.446 15.3147 127.017 19.3532 128.202 20.0883C129.207 20.7119 128.799 21.2445 126.744 21.9902C123.925 23.0132 119.957 26.8342 118.631 29.8024C116.146 35.3671 117.872 42.4631 122.724 46.6319C126.775 50.1111 128.153 50.3302 145.998 50.3302H161.931V45.8546C161.931 41.8555 161.828 41.4084 160.964 41.6569C160.432 41.8101 153.777 42.1046 146.176 42.3116C130.982 42.726 128.503 42.4309 126.581 39.9781C125.194 38.2083 125.065 34.3701 126.312 31.9506C127.674 29.3064 129.932 28.6928 138.296 28.6928C144.069 28.6928 145.919 28.5064 146.885 27.8267C148.43 26.7415 149.769 24.1927 149.769 22.3402C149.769 20.931 149.75 20.9255 144.911 20.9255C136.99 20.9255 133.525 18.4316 133.48 12.6966C133.464 10.671 133.745 10.0385 135.267 8.67428C136.845 7.25897 137.498 7.05536 140.457 7.05536C142.319 7.05536 146.668 7.35106 150.123 7.71224C155.729 8.29867 156.614 8.26927 158.351 7.43817C160.328 6.49223 161.031 5.32935 161.652 1.98276L161.997 0.120284L149.94 0.0154282C141.512 -0.0578062 137.088 0.126933 135.238 0.628478ZM39.4054 4.22862C34.7823 5.40758 29.4482 10.7121 27.8915 15.6787C25.28 24.0119 29.3398 32.8932 37.4816 36.6565C41.16 38.3569 47.9143 38.2865 51.3693 36.5111C54.7392 34.7796 57.799 31.7564 59.5631 28.4154C61.5692 24.6166 61.6875 17.5207 59.8091 13.6958C58.1468 10.311 54.8089 6.92997 51.5578 5.33823C48.6865 3.93235 42.7079 3.38642 39.4054 4.22862ZM240.871 23.006C240.974 33.3049 240.839 43.6659 240.572 46.0305L240.088 50.3302H244.282H248.476L248.261 39.3584L248.045 28.386L251.399 26.0253C255.62 23.0537 258.038 22.0351 260.873 22.0351C263.793 22.0351 267.672 23.8993 269.339 26.1046C271.802 29.3608 272.125 31.4324 271.701 41.2735L271.311 50.3302H275.515H279.718L279.44 47.6949C279.288 46.2452 279.016 41.6259 278.838 37.4287C278.426 27.7457 277.677 25.1792 274.121 21.2745C271.047 17.899 268.094 16.2235 263.767 15.4002C258.929 14.4792 254.908 15.6654 249.349 19.6533L248.041 20.5915L248.251 12.4364L248.461 4.28133H244.574H240.686L240.871 23.006ZM457.658 4.6697C457.643 4.91381 457.654 8.6715 457.683 13.0195C457.719 18.4988 457.546 20.9255 457.119 20.9255C456.779 20.9255 455.462 20.2115 454.191 19.3393C448.83 15.6587 444.286 14.4553 439.321 15.4002C425.606 18.0111 419.781 34.4872 428.899 44.8826C432.174 48.617 436.042 50.4767 441.149 50.7735C446.203 51.067 449.621 50.1022 453.61 47.256C455.089 46.2008 456.487 45.3369 456.716 45.3369C456.944 45.3369 457.132 46.4604 457.132 47.8336V50.3302H461.066H465L464.626 48.8045C464.42 47.9656 464.147 37.6668 464.019 25.9187L463.788 4.55873L460.736 4.39229C459.058 4.30075 457.672 4.42558 457.658 4.6697ZM368.129 11.6403V15.6709L366.056 15.6382C362.786 15.5872 362.601 15.7697 362.601 19.0597V22.0684L365.347 21.9131L368.093 21.7577L368.268 32.5764C368.462 44.5658 368.887 46.4421 371.899 48.5942C374.411 50.3896 378.847 51.0842 382.226 50.2115L384.99 49.498L385.155 45.7031L385.319 41.9083L384.064 42.7904C382.316 44.0193 378.514 43.9255 376.898 42.6129C375.614 41.5709 375.592 41.3884 375.592 31.6554V21.7577L380.429 21.8975L385.267 22.0373V18.9848V15.9322L381.811 15.8623C374.9 15.722 375.592 16.193 375.592 11.6314V7.6085L371.861 7.60904L368.129 7.61016V11.6403ZM182.565 15.3902C179.956 15.9217 177.378 17.1523 174.87 19.0658C173.93 19.7837 172.996 20.3707 172.797 20.3707C172.598 20.3707 172.435 19.2472 172.435 17.8741V15.3774H169.133H165.831L165.678 32.8544L165.525 50.3308L169.118 50.3313H172.711L172.581 39.3733L172.451 28.4154L176.451 25.7973C181.397 22.5594 183.445 21.8232 186.536 22.1727C190.229 22.5905 192.948 24.2798 194.824 27.3218L196.482 30.0116L196.384 40.1712L196.285 50.3302H200.398H204.511L204.249 48.2497C204.105 47.1057 203.848 42.549 203.677 38.1245C203.262 27.354 202.518 24.9861 198.171 20.5987C195.718 18.1232 194.085 16.9847 192.059 16.3373C188.281 15.1294 185.305 14.8326 182.565 15.3902ZM295.784 15.4085C286.261 17.3337 279.839 26.3831 281.357 35.7399C282.039 39.9514 283.374 42.4298 286.844 45.9328C290.478 49.6023 293.642 50.885 299.057 50.885C303.445 50.885 306.218 49.9951 310.184 47.3143C311.794 46.2269 313.3 45.3369 313.532 45.3369C313.764 45.3369 313.954 46.4604 313.954 47.8336V50.3302H316.995H320.035L320.156 36.7375C320.222 29.2615 320.285 21.4592 320.294 19.3998L320.311 15.6548L317.133 15.4884L313.954 15.322V18.1237C313.954 19.665 313.838 20.9255 313.696 20.9255C313.554 20.9255 311.897 19.9257 310.013 18.7035C305.247 15.6116 300.368 14.482 295.784 15.4085ZM341.235 15.5938C339.67 15.9839 337.119 17.2183 335.568 18.3368C334.016 19.4553 332.623 20.3707 332.472 20.3707C332.321 20.3707 332.197 19.2472 332.197 17.8741V15.3774H328.604H325.01V32.8538V50.3302H328.913C331.059 50.3302 332.68 50.1122 332.517 49.8459C332.353 49.5801 332.077 44.771 331.905 39.1597L331.591 28.9569L335.625 26.1484C337.844 24.6039 340.505 23.0465 341.539 22.6876C346.791 20.8639 352.31 23.1542 354.906 28.2356C355.794 29.9733 355.97 31.7614 356.096 40.2976L356.244 50.3202L359.869 50.3252L363.495 50.3302L363.332 45.4757C363.243 42.8059 363.081 37.8748 362.972 34.5182C362.815 29.6448 362.528 27.8972 361.552 25.8433C359.629 21.8043 356.823 18.921 353.042 17.1007C348.933 15.1228 345.093 14.6323 341.235 15.5938ZM400.552 15.4202C386.574 17.6932 380.804 35.1368 390.698 45.2049C394.574 49.1474 397.785 50.5144 403.786 50.7746C409.903 51.0398 413.801 49.7726 417.627 46.274L420.17 43.9499L417.677 41.5093L415.185 39.0693L413.776 40.7498C411.7 43.2259 409.151 44.2273 404.924 44.2273C401.086 44.2273 398.022 43.121 396.251 41.096C395.364 40.0818 393.559 36.8057 393.559 36.2104C393.559 36.0423 399.935 35.9053 407.729 35.9053H421.901L421.63 32.1082C420.834 20.9527 411.581 13.6265 400.552 15.4202ZM217.212 16.3544C215.718 16.932 213.398 18.6464 211.403 20.6464C207.408 24.651 206.149 27.7235 206.153 33.4586C206.157 38.5339 208.284 43.0972 212.282 46.6075C216.077 49.9396 219.45 51.0603 224.821 50.774C229.461 50.5271 232.831 49.2445 235.861 46.572L237.577 45.0595L235.636 42.0919L233.694 39.1248L232.226 40.5029C229.672 42.8986 227.124 43.9017 223.529 43.9266C220.789 43.9455 219.76 43.6764 217.931 42.4614C214.877 40.433 213.294 37.6762 212.965 33.8109C212.147 24.2122 222.831 18.7934 231.258 24.5329C232.377 25.2952 233.479 25.9187 233.708 25.9187C234.222 25.9187 238.446 20.4129 238.154 20.1227C238.038 20.0067 235.828 18.9737 233.244 17.8264C227.513 15.2831 221.43 14.7244 217.212 16.3544ZM409.211 23.2829C410.667 24.0962 411.905 25.4028 412.758 27.0284L414.069 29.525L404.228 29.8024C398.816 29.955 394.172 29.9128 393.908 29.7086C393.643 29.5039 394.016 28.2556 394.737 26.9346C395.717 25.1354 396.81 24.1384 399.087 22.9661C402.645 21.1341 405.524 21.2245 409.211 23.2829ZM308.34 25.3739L313.876 28.2478L314.053 32.9404L314.23 37.6335L309.037 40.3759C300.747 44.7533 297.581 45.105 293.047 42.154C287.281 38.4024 286.465 30.2052 291.367 25.2852C295.562 21.0759 300.108 21.0997 308.34 25.3739ZM449.396 24.2599C451.37 25.2935 454.043 26.6511 455.335 27.2769L457.684 28.4154L457.647 33.1312L457.61 37.8471L451.704 40.7221C448.457 42.3033 444.906 43.7591 443.814 43.9577C439.705 44.7034 434.508 41.9604 432.445 37.9558C431.316 35.7638 431.289 30.5414 432.396 28.4154C435.677 22.1144 442.234 20.5116 449.396 24.2599ZM12.3216 37.619C11.368 37.8964 9.38617 38.935 7.91735 39.927C-3.60818 47.711 -2.31351 64.9987 10.2585 71.1915C16.5556 74.2934 22.8228 73.535 29.8728 68.8191C37.0034 64.0483 38.7055 63.4059 44.1828 63.4181C49.6324 63.4303 51.1454 63.9734 57.6824 68.2643C63.791 72.2744 65.2697 72.7998 70.4413 72.7998C75.7018 72.7998 79.5178 71.2236 83.2598 67.5059C86.9819 63.807 88.1074 60.9226 88.1201 55.046C88.1295 50.6958 87.9333 49.6483 86.5944 46.912C83.6131 40.8197 78.5029 37.5175 71.4529 37.1292C65.7523 36.8151 63.7042 37.4926 56.9997 41.911C51.1178 45.7875 49.2554 46.4393 44.0507 46.4432C39.4015 46.4471 36.3434 45.3164 30.7379 41.5204C28.3768 39.9215 25.4298 38.2537 24.1882 37.8138C21.7077 36.9355 15.0469 36.8262 12.3216 37.619ZM231.585 80.8445V104.701H234.902H238.219V80.8445V56.9879H234.902H231.585V80.8445ZM122.129 63.6455V66.9744H128.978C134.896 66.9744 136.004 67.1186 137.132 68.0346L138.437 69.0943L138.597 86.898L138.758 104.701H142.052H145.347V87.1998V69.6979L146.704 68.3364C148.001 67.0348 148.37 66.9744 154.996 66.9744H161.931V63.6455V60.3167L154.883 60.3267C148.129 60.3361 147.711 60.4049 144.885 61.9689L141.935 63.6012L139.036 61.9589C136.246 60.3788 135.872 60.3167 129.133 60.3167H122.129V63.6455ZM162.597 70.7992C157.578 72.5396 152.706 77.4291 151.321 82.1161C147.24 95.933 159.722 108.953 173.262 105.003C175.041 104.484 178.344 102.837 180.601 101.343C187.375 96.8612 191.111 96.8568 197.729 101.325C200.055 102.896 203.321 104.579 204.985 105.064C213.069 107.422 222.255 103.268 226.08 95.5236C227.22 93.2167 227.439 91.9667 227.439 87.7796C227.439 83.6008 227.218 82.3353 226.083 80.0212C223.288 74.3183 217.762 70.5251 211.376 69.9232C206.805 69.4926 202.946 70.7115 197.729 74.2346C191.183 78.6536 187.179 78.6874 180.903 74.3749C174.316 69.8494 168.573 68.7276 162.597 70.7992ZM251.943 70.2561C246.489 72.0397 243.589 75.3863 243.589 79.898C243.589 85.7423 246.313 88.2839 255.006 90.5492C261.249 92.1759 262.286 92.6425 263.113 94.1937C264.643 97.062 261.45 99.415 256.136 99.3345C252.818 99.2846 248.188 97.755 247.379 96.4418C246.742 95.4071 246.127 95.7283 244.29 98.0568C242.116 100.811 242.451 101.386 247.617 103.778C250.725 105.217 251.882 105.448 256.185 105.487C262.275 105.543 265.52 104.44 268.281 101.373C272.31 96.8967 271.525 90.5758 266.515 87.1521C264.954 86.0846 263.17 85.511 255.465 83.5963C252.624 82.8901 250.934 81.3511 250.934 79.4703C250.934 75.9417 258.249 74.8765 263.544 77.6339L266.435 79.139L268.082 76.8571C268.988 75.6021 269.729 74.3977 269.729 74.1807C269.729 73.9638 268.202 72.9696 266.334 71.971C263.403 70.4031 262.291 70.129 258.181 69.9637C255.563 69.8588 252.756 69.9903 251.943 70.2561ZM40.2739 72.1552C29.6743 75.0923 24.2462 86.1168 28.5698 95.9263C33.1277 106.267 46.9944 109.339 55.4402 101.877C62.4067 95.7233 63.1812 84.7098 57.1462 77.6339C53.3622 73.1971 45.6046 70.6777 40.2739 72.1552ZM173.153 77.8735C174.126 78.3751 176.338 79.7477 178.068 80.9233C181.119 82.996 186.104 84.7281 189.019 84.7281C192.28 84.7281 197.204 82.9012 201.424 80.1255C205.745 77.2821 205.876 77.2383 210.035 77.2383C213.811 77.2383 214.473 77.4031 216.293 78.7962C221.476 82.7636 222.191 90.4881 217.836 95.467C215.941 97.6351 212.813 98.7292 209.175 98.4968C206.158 98.3037 205.223 97.9342 201.39 95.4176C195.717 91.6921 194.524 91.2643 189.572 91.1794C184.836 91.0984 181.392 92.1864 177.415 95.0203C172.942 98.2083 171.468 98.7364 167.715 98.4968C160.615 98.0429 156.381 92.3234 157.744 85.0283C158.155 82.8324 160.748 79.5496 163.313 77.98C165.453 76.6707 170.71 76.6136 173.153 77.8735Z"
        fill="currentColor"
      />
    </svg>