<svg
      width="112"
      height="48"
      viewBox="0 0 579 111"
      fill="none"
      xmlns="http://www.w3.org/2000/svg">
      <path
        fillRule="evenodd"
        clipRule="evenodd"
        d="M38.112 1.559C20.875 6.264 6.76999 20.314 1.59499 37.932C-0.214014 44.092 -0.471016 57.241 1.08498 64C4.82298 80.228 18.215 94.738 34.887 100.623C44.244 103.927 58.756 103.927 68.113 100.623C97.899 90.109 111.7 56.023 97.51 28.02C92.459 18.052 86.425 13.469 84.091 17.829C83.319 19.272 83.961 20.854 87.129 25.32C94.227 35.326 97.349 48.209 95.024 57.901C92.465 68.566 85.135 69.059 79.956 58.913C77.518 54.135 75.382 41.932 73.61 22.66C72.81 13.949 71.887 6.554 71.56 6.227C69.882 4.548 68.868 9.004 67.957 22.068C66.8 38.659 64.645 55.016 62.49 63.573C60.276 72.362 54.132 83.832 49.76 87.336C39.402 95.638 21.08 88.587 12.621 73.045C2.72099 54.856 6.40198 33.056 21.752 18.965C28.417 12.847 35.85 9.33 45.163 7.887C55.318 6.314 55.177 6.382 54.817 3.256C54.517 0.649996 54.2 0.488998 49 0.293998C45.975 0.180998 41.076 0.749997 38.112 1.559ZM290.571 7.571C289.707 8.436 289 9.716 289 10.416C289 11.927 292.19 15 293.757 15C295.295 15 298 12.131 298 10.5C298 8.749 295.251 6 293.5 6C292.754 6 291.436 6.707 290.571 7.571ZM267.667 7.667C267.3 8.033 267 24.922 267 45.198C267 78.485 267.16 82.124 268.645 82.694C272.661 84.235 273 81.321 273 45.243C273 23.46 272.621 10.16 271.965 8.934C270.93 7.001 268.924 6.409 267.667 7.667ZM386.229 8.171C385.303 9.097 385 18.191 385 45.078C385 75.435 385.222 80.939 386.487 81.989C387.305 82.668 388.613 82.979 389.393 82.68C390.529 82.243 390.879 78.406 391.155 63.318C391.475 45.847 391.665 44.213 393.803 40.483C397.867 33.396 404.967 30.168 413.634 31.468C418.182 32.15 423.859 36.152 426.288 40.387C427.074 41.756 427.676 49.538 428 62.5L428.5 82.5H431H433.5V62.469C433.5 42.949 433.435 42.311 430.945 37.478C427.192 30.191 420.97 26.587 412.15 26.591C406.7 26.594 404.536 27.12 400.158 29.506C397.22 31.107 393.97 33.494 392.936 34.809C391.069 37.183 391.053 37.09 390.777 22.363C390.547 10.026 390.244 7.476 388.979 7.233C388.143 7.073 386.905 7.495 386.229 8.171ZM454.667 13.667C454.3 14.033 454 17.183 454 20.667C454 26.905 453.959 27 451.25 27.015C447.597 27.036 445.567 28.43 446.323 30.399C446.726 31.449 448.153 32 450.469 32H454V53.05C454 76.704 454.543 79.076 460.534 81.579C462.405 82.36 466.457 83 469.537 83C474.775 83 475.118 82.854 474.82 80.75C474.54 78.782 473.767 78.435 468.655 77.98C459.947 77.206 460 77.361 460 52.853V32.088L467.25 31.794C473.735 31.531 474.5 31.289 474.5 29.5C474.5 27.711 473.735 27.469 467.25 27.206L460 26.912V21.538C460 18.582 459.727 15.452 459.393 14.582C458.781 12.988 455.903 12.431 454.667 13.667ZM43.5 17.406C24.2 22.175 12.185 42.073 17.437 60.569C19.974 69.504 28.675 81 32.9 81C35.625 81 34.777 78.335 30.722 74.154C23.347 66.551 21.516 62.05 21.507 51.5C21.501 43.364 21.788 41.979 24.5 37.078C29.485 28.067 40.748 21 50.122 21C53.41 21 54.636 19.471 52.964 17.456C51.547 15.749 50.23 15.742 43.5 17.406ZM220.589 27.068C215.721 28.273 210.657 31.349 208.016 34.706L206 37.27V32.742C206 27.733 204.133 26.01 201.529 28.614C199.278 30.865 199.239 80.124 201.487 81.989C202.305 82.668 203.655 82.963 204.487 82.643C205.752 82.158 206 79.385 206 65.713C206 46.285 207.209 40.78 212.494 36.139C219.667 29.841 230.062 29.482 236.691 35.302C242.441 40.351 242.998 42.764 243.015 62.718C243.024 72.498 243.415 81.107 243.885 81.848C244.355 82.59 245.586 83.032 246.62 82.831C248.387 82.488 248.5 81.233 248.5 61.902V41.337L245.491 36.473C240.624 28.606 230.233 24.681 220.589 27.068ZM503.757 27.178C501.698 27.738 498.885 29.536 497.507 31.174L495 34.153V31.699C495 28.734 492.859 26.733 490.611 27.596C489.134 28.163 488.995 30.965 489.234 55.363L489.5 82.5L491.715 82.815C494.716 83.242 494.908 81.997 495.229 60C495.471 43.505 495.72 41.121 497.534 38C500.112 33.563 505.155 31.004 511.32 31.002C515.745 31 516.113 30.816 515.82 28.75C515.554 26.88 514.824 26.471 511.5 26.33C509.3 26.237 505.815 26.618 503.757 27.178ZM146.168 29.603C137.68 33.834 133.122 41.341 132.28 52.485C131.285 65.642 136.382 75.779 146.621 81.008C153.188 84.362 165.397 84.494 171.553 81.278C179.235 77.264 185.254 69.011 181.976 66.985C180.075 65.81 178.82 66.638 175.705 71.126C171.723 76.863 165.584 79.401 157.297 78.736C148.933 78.064 144.149 74.947 140.623 67.871C139.18 64.976 138 61.346 138 59.804V57H161.5C179.563 57 185.03 56.711 185.132 55.75C185.53 51.974 184.654 45.107 183.388 42.077C179.182 32.012 171.075 27 159 27C152.809 27 150.42 27.485 146.168 29.603ZM292.25 27.731C291.292 28.065 291 34.455 291 55.115C291 78.66 291.198 82.139 292.567 82.664C293.429 82.995 294.569 82.831 295.101 82.299C295.871 81.529 296.284 58.198 296.02 30.357C295.999 28.117 294.379 26.988 292.25 27.731ZM327.355 28.447C322.212 30.685 316.396 36.663 313.919 42.258C312.102 46.361 311.607 49.239 311.64 55.5C311.706 67.793 315.81 75.361 325.246 80.589C329.738 83.078 331.588 83.5 338 83.5C344.356 83.5 346.204 83.086 350.113 80.788C352.65 79.297 356.137 76.469 357.863 74.503L361 70.93V81.149C361 93.508 359.042 98.62 352.702 102.816C349.198 105.135 347.615 105.5 341.073 105.5C331.701 105.5 326.926 103.372 322.633 97.282C319.505 92.844 316.81 92.03 316.175 95.331C315.579 98.423 320.426 104.367 326.108 107.514C330.977 110.211 332.372 110.499 340.5 110.493C350.433 110.485 355.079 108.793 360.136 103.342C366.467 96.516 366.472 96.487 366.8 61.414C367.063 33.405 366.904 29.165 365.55 28.042C362.937 25.873 361 28.477 361 34.157V39.07L357.955 35.602C353.027 29.989 345.889 26.993 337.554 27.039C333.674 27.061 329.085 27.694 327.355 28.447ZM538.524 29.063C528.93 33.848 523.799 42.652 523.723 54.455C523.65 66.012 527.547 74.292 535.491 79.458C546.651 86.715 560.41 84.93 569.318 75.07L573 70.994L573.015 75.747C573.033 81.351 574.04 83.331 576.62 82.835C578.397 82.493 578.515 80.988 578.766 55.35C579.005 30.964 578.866 28.163 577.389 27.596C574.638 26.54 573 28.912 573 33.951V38.657L568.494 34.339C566.015 31.965 562.36 29.342 560.372 28.511C555.065 26.294 543.489 26.586 538.524 29.063ZM165.596 32.473C170.446 33.913 175.623 38.186 177.743 42.5C178.283 43.6 179.018 46.412 179.375 48.75L180.024 53H159.012C135.521 53 136.899 53.506 139.072 45.679C140.616 40.119 146.321 34.274 151.871 32.565C157.886 30.713 159.63 30.701 165.596 32.473ZM347.67 33.144C351.86 34.411 358.577 41.815 359.919 46.645C361.739 53.202 361.225 60.975 358.598 66.617C351.227 82.448 329.231 83.25 320.628 68.002C317.908 63.18 317.531 61.58 317.562 55.002C317.648 37.247 330.465 27.942 347.67 33.144ZM560.5 33.487C567.864 36.514 572.943 45.019 572.978 54.384C573.009 62.721 571.179 67.861 566.52 72.52C555.219 83.821 536.034 79.412 530.907 64.336C529.243 59.442 529.234 50.585 530.887 45.725C534.907 33.91 548.183 28.423 560.5 33.487ZM45.885 33.38C36.811 36.622 32.486 42.694 32.536 52.123C32.559 56.527 33.152 58.631 35.269 61.83C38.596 66.858 41.311 68.535 42.943 66.569C43.851 65.475 43.421 64.411 40.922 61.564C33.182 52.749 37.768 39.18 49.1 37.368C53.606 36.647 54.696 35.544 52.964 33.456C51.512 31.707 50.594 31.697 45.885 33.38Z"
        fill="currentColor"
      />
    </svg>