<svg
      width="160"
      height="48"
      viewBox="0 0 1080 366"
      fill="none"xmlns="http://www.w3.org/2000/svg">
      <path
        d="M194.52 149.67L205.6 173.43C203.118 174.095 200.699 174.975 198.37 176.06C196.04 177.144 193.812 178.432 191.71 179.91L180.63 156.15C179.771 154.308 179.678 152.2 180.373 150.29C181.068 148.38 182.493 146.824 184.335 145.965C186.177 145.106 188.285 145.013 190.195 145.708C192.105 146.403 193.661 147.828 194.52 149.67ZM225 193.39C222.388 192.436 219.63 191.946 216.85 191.94C213.287 191.942 209.771 192.743 206.559 194.285C203.348 195.827 200.524 198.071 198.295 200.85C196.066 203.629 194.489 206.873 193.681 210.343C192.873 213.812 192.855 217.419 193.627 220.897C194.399 224.375 195.941 227.635 198.141 230.437C200.341 233.239 203.142 235.512 206.338 237.087C209.533 238.662 213.041 239.5 216.603 239.539C220.166 239.577 223.691 238.816 226.92 237.31C229.753 235.989 232.301 234.128 234.42 231.83C237.063 228.943 238.953 225.45 239.924 221.658C240.894 217.866 240.914 213.894 239.983 210.093C239.051 206.291 237.197 202.778 234.583 199.865C231.97 196.951 228.678 194.727 225 193.39ZM228.15 258.07L239.22 281.83C239.645 282.749 240.247 283.576 240.991 284.262C241.736 284.949 242.609 285.481 243.56 285.83C244.503 286.173 245.505 286.326 246.507 286.28C247.509 286.234 248.493 285.989 249.4 285.56C251.242 284.702 252.668 283.148 253.366 281.24C254.063 279.331 253.975 277.223 253.12 275.38L242.04 251.62C239.934 253.096 237.702 254.385 235.37 255.47C233.046 256.542 230.633 257.412 228.16 258.07H228.15ZM188.71 19.62C163 19.6407 137.662 25.7631 114.778 37.4839C91.8954 49.2047 72.1208 66.1891 57.0804 87.0409C42.0399 107.893 32.1632 132.016 28.262 157.429C24.3608 182.841 26.5467 208.817 34.6399 233.22C57.2106 241.424 81.2203 244.927 105.194 243.513C129.168 242.099 152.6 235.799 174.05 225C172.006 215.453 173.206 205.498 177.46 196.71L162.46 164.63C159.504 158.001 159.272 150.477 161.812 143.678C164.352 136.879 169.462 131.351 176.04 128.284C182.618 125.217 190.138 124.858 196.978 127.283C203.819 129.709 209.433 134.724 212.61 141.25L227.61 173.35C233.91 174.94 239.777 177.913 244.786 182.053C249.794 186.193 253.817 191.396 256.563 197.285C259.309 203.174 260.71 209.601 260.662 216.098C260.615 222.596 259.122 229.002 256.29 234.85L271.24 266.93C274.34 273.579 274.672 281.187 272.163 288.081C269.654 294.975 264.509 300.59 257.86 303.69C251.211 306.79 243.603 307.122 236.709 304.613C229.815 302.104 224.2 296.959 221.1 290.31L206.1 258.24C196.819 255.861 188.572 250.508 182.62 243C158.338 255.109 131.826 262.094 104.73 263.52C101.5 263.68 98.2499 263.76 95.0099 263.76C78.1064 263.746 61.2738 261.575 44.9199 257.3C58.2759 282.792 78.1687 304.276 102.56 319.55C126.952 334.824 154.965 343.339 183.731 344.223C212.496 345.108 240.98 338.329 266.264 324.582C291.547 310.835 312.722 290.614 327.619 265.991C342.515 241.367 350.598 213.226 351.04 184.45C351.481 155.674 344.265 127.298 330.131 102.229C315.996 77.1601 295.452 56.2991 270.601 41.7832C245.751 27.2673 217.489 19.6184 188.71 19.62Z"
        fill="currentColor"
      />
      <path
        d="M424.41 38C424.41 37.4696 424.621 36.9609 424.996 36.5858C425.371 36.2107 425.879 36 426.41 36H469.88C470.41 36 470.919 36.2107 471.294 36.5858C471.669 36.9609 471.88 37.4696 471.88 38V49.44C471.88 49.9704 471.669 50.4791 471.294 50.8542C470.919 51.2293 470.41 51.44 469.88 51.44H440.79V64.44H464.73C465.255 64.4575 465.753 64.6738 466.125 65.0451C466.496 65.4165 466.712 65.9151 466.73 66.44V77.9C466.73 78.4304 466.519 78.9391 466.144 79.3142C465.769 79.6893 465.26 79.9 464.73 79.9H440.79V94.06H469.88C470.41 94.06 470.919 94.2707 471.294 94.6458C471.669 95.0209 471.88 95.5296 471.88 96.06V107.5C471.88 108.03 471.669 108.539 471.294 108.914C470.919 109.289 470.41 109.5 469.88 109.5H426.41C425.879 109.5 425.371 109.289 424.996 108.914C424.621 108.539 424.41 108.03 424.41 107.5V38Z"
        fill="currentColor"
      />
      <path
        d="M485.94 38C485.94 37.4696 486.151 36.9609 486.526 36.5858C486.901 36.2107 487.41 36 487.94 36H513.24C516.355 35.9287 519.453 36.4798 522.353 37.621C525.252 38.7621 527.895 40.4705 530.126 42.6459C532.357 44.8212 534.131 47.42 535.345 50.2898C536.559 53.1596 537.188 56.2428 537.196 59.3589C537.203 62.4749 536.588 65.561 535.388 68.4365C534.187 71.312 532.425 73.919 530.205 76.1049C527.984 78.2907 525.349 80.0114 522.455 81.1662C519.561 82.321 516.465 82.8866 513.35 82.83H502.35V107.5C502.332 108.025 502.116 108.523 501.745 108.895C501.373 109.266 500.875 109.483 500.35 109.5H487.94C487.41 109.5 486.901 109.289 486.526 108.914C486.151 108.539 485.94 108.03 485.94 107.5V38ZM512.3 67.5C513.39 67.5066 514.471 67.2967 515.48 66.8825C516.489 66.4682 517.406 65.8578 518.177 65.0867C518.948 64.3156 519.558 63.3991 519.972 62.3903C520.387 61.3815 520.597 60.3005 520.59 59.21C520.56 58.1541 520.322 57.1145 519.888 56.1512C519.455 55.1879 518.835 54.3201 518.064 53.5977C517.293 52.8753 516.387 52.3127 515.398 51.9424C514.408 51.572 513.356 51.4013 512.3 51.44H502.3V67.5H512.3Z"
        fill="currentColor"
      />
      <path
        d="M547.47 38C547.47 37.4696 547.681 36.9609 548.056 36.5858C548.431 36.2107 548.94 36 549.47 36H592.94C593.47 36 593.979 36.2107 594.354 36.5858C594.729 36.9609 594.94 37.4696 594.94 38V49.44C594.94 49.9704 594.729 50.4791 594.354 50.8542C593.979 51.2293 593.47 51.44 592.94 51.44H563.85V66.56H587.79C588.315 66.5775 588.814 66.7938 589.185 67.1651C589.556 67.5365 589.773 68.0351 589.79 68.56V80C589.773 80.5249 589.556 81.0235 589.185 81.3949C588.814 81.7662 588.315 81.9825 587.79 82H563.85V107.5C563.833 108.025 563.616 108.524 563.245 108.895C562.874 109.266 562.375 109.483 561.85 109.5H549.47C548.94 109.5 548.431 109.289 548.056 108.914C547.681 108.539 547.47 108.03 547.47 107.5V38Z"
        fill="currentColor"
      />
      <path
        d="M606.59 38C606.59 37.4696 606.801 36.9609 607.176 36.5858C607.551 36.2107 608.06 36 608.59 36H621.09C621.615 36.0175 622.114 36.2338 622.485 36.6051C622.856 36.9765 623.073 37.4751 623.09 38V94.06H648.09C648.621 94.06 649.129 94.2707 649.504 94.6458C649.879 95.0209 650.09 95.5296 650.09 96.06V107.5C650.09 108.03 649.879 108.539 649.504 108.914C649.129 109.289 648.621 109.5 648.09 109.5H608.58C608.05 109.5 607.541 109.289 607.166 108.914C606.791 108.539 606.58 108.03 606.58 107.5L606.59 38Z"
        fill="currentColor"
      />
      <path
        d="M420.21 208.53L425.15 199.81C425.99 198.45 427.98 198.66 428.72 199.18C429.14 199.39 436.72 204.96 443.63 204.96C447.83 204.96 450.87 202.33 450.87 198.66C450.87 194.25 447.2 190.89 440.06 188.05C431.06 184.48 419.69 177.45 419.69 164.85C419.69 154.45 427.77 143.95 443.94 143.95C454.86 143.95 463.26 149.52 466.41 151.83C467.67 152.56 467.41 154.45 467.04 155.19L461.69 163.27C460.95 164.43 459.06 165.37 458.12 164.64C457.17 164.11 449.51 158.34 443.12 158.34C439.34 158.34 436.51 160.86 436.51 163.69C436.51 167.58 439.66 170.52 447.95 173.88C456.24 177.24 469.16 183.54 469.16 197.82C469.16 208.63 459.82 219.55 444.38 219.55C430.73 219.55 423.17 213.88 420.76 211.46C419.69 210.42 419.37 210 420.21 208.53Z"
        fill="currentColor"
      />
      <path
        d="M482 147C482 146.47 482.211 145.961 482.586 145.586C482.961 145.211 483.47 145 484 145H509.3C512.415 144.929 515.513 145.48 518.413 146.621C521.312 147.762 523.955 149.47 526.186 151.646C528.417 153.821 530.191 156.42 531.405 159.29C532.619 162.16 533.248 165.243 533.256 168.359C533.263 171.475 532.648 174.561 531.448 177.437C530.248 180.312 528.485 182.919 526.265 185.105C524.044 187.291 521.409 189.011 518.515 190.166C515.621 191.321 512.526 191.887 509.41 191.83H498.41V216.5C498.393 217.025 498.176 217.523 497.805 217.895C497.434 218.266 496.935 218.483 496.41 218.5H484C483.47 218.5 482.961 218.289 482.586 217.914C482.211 217.539 482 217.03 482 216.5V147ZM508.36 176.5C509.45 176.507 510.531 176.297 511.54 175.882C512.549 175.468 513.466 174.858 514.237 174.087C515.008 173.316 515.618 172.399 516.032 171.39C516.447 170.381 516.657 169.301 516.65 168.21C516.62 167.154 516.382 166.114 515.948 165.151C515.515 164.188 514.895 163.32 514.124 162.598C513.353 161.875 512.447 161.313 511.458 160.942C510.468 160.572 509.416 160.401 508.36 160.44H498.36V176.5H508.36Z"
        fill="currentColor"
      />
      <path
        d="M530.15 215.77L563 145.11C563.179 144.786 563.439 144.513 563.754 144.318C564.07 144.124 564.43 144.014 564.8 144H565.85C566.222 144.021 566.583 144.139 566.895 144.342C567.207 144.546 567.461 144.828 567.63 145.16L600.49 215.82C600.65 216.113 600.728 216.445 600.715 216.779C600.702 217.113 600.599 217.437 600.416 217.717C600.234 217.997 599.978 218.222 599.678 218.369C599.378 218.516 599.043 218.578 598.71 218.55H587.05C585.16 218.55 584.32 217.92 583.38 215.93L579.6 207.63H551L547.22 216.03C546.932 216.792 546.413 217.445 545.735 217.897C545.057 218.349 544.254 218.577 543.44 218.55H531.93C531.59 218.584 531.247 218.524 530.939 218.375C530.631 218.226 530.37 217.995 530.186 217.707C530.001 217.419 529.9 217.085 529.894 216.744C529.888 216.402 529.976 216.065 530.15 215.77ZM573.3 193.3L565.3 175.98H565.2L557.32 193.3H573.3Z"
        fill="currentColor"
      />
      <path
        d="M641 144C651.5 144 659.27 147.26 666.41 153.77C666.62 153.95 666.791 154.171 666.911 154.42C667.032 154.669 667.099 154.94 667.109 155.216C667.12 155.492 667.073 155.768 666.971 156.025C666.87 156.282 666.716 156.515 666.52 156.71L658.33 165.21C658.159 165.385 657.954 165.524 657.728 165.619C657.502 165.714 657.26 165.763 657.015 165.763C656.77 165.763 656.528 165.714 656.302 165.619C656.076 165.524 655.871 165.385 655.7 165.21C651.784 161.764 646.747 159.862 641.53 159.86C629.66 159.86 620.95 169.73 620.95 181.49C620.95 193.25 629.77 202.8 641.63 202.8C646.757 202.81 651.729 201.043 655.7 197.8C656.091 197.484 656.583 197.32 657.086 197.341C657.588 197.361 658.066 197.563 658.43 197.91L666.62 206.62C666.96 207.021 667.138 207.534 667.12 208.059C667.101 208.585 666.887 209.084 666.52 209.46C659.674 216.053 650.504 219.679 641 219.55C636.036 219.55 631.121 218.572 626.534 216.673C621.948 214.773 617.781 211.989 614.271 208.479C610.761 204.969 607.977 200.802 606.077 196.215C604.178 191.629 603.2 186.714 603.2 181.75C603.2 176.786 604.178 171.871 606.077 167.285C607.977 162.698 610.761 158.531 614.271 155.021C617.781 151.511 621.948 148.727 626.534 146.827C631.121 144.928 636.036 143.95 641 143.95V144Z"
        fill="currentColor"
      />
      <path
        d="M679.14 147C679.14 146.47 679.351 145.961 679.726 145.586C680.101 145.211 680.609 145 681.14 145H724.6C725.13 145 725.639 145.211 726.014 145.586C726.389 145.961 726.6 146.47 726.6 147V158.44C726.6 158.97 726.389 159.479 726.014 159.854C725.639 160.229 725.13 160.44 724.6 160.44H695.52V173.44H719.46C719.986 173.455 720.486 173.671 720.857 174.043C721.229 174.414 721.445 174.914 721.46 175.44V186.9C721.46 187.43 721.249 187.939 720.874 188.314C720.499 188.689 719.99 188.9 719.46 188.9H695.52V203.08H724.6C725.13 203.08 725.639 203.291 726.014 203.666C726.389 204.041 726.6 204.55 726.6 205.08V216.5C726.6 217.03 726.389 217.539 726.014 217.914C725.639 218.289 725.13 218.5 724.6 218.5H681.13C680.599 218.5 680.091 218.289 679.716 217.914C679.341 217.539 679.13 217.03 679.13 216.5L679.14 147Z"
        fill="currentColor"
      />
      <path
        d="M773.22 144C783.72 144 791.49 147.26 798.63 153.77C798.839 153.95 799.009 154.172 799.129 154.421C799.248 154.671 799.315 154.942 799.324 155.218C799.334 155.494 799.286 155.77 799.183 156.026C799.081 156.283 798.927 156.516 798.73 156.71L790.54 165.21C790.37 165.386 790.167 165.526 789.942 165.622C789.717 165.717 789.474 165.767 789.23 165.767C788.985 165.767 788.743 165.717 788.518 165.622C788.293 165.526 788.09 165.386 787.92 165.21C784 161.763 778.96 159.861 773.74 159.86C761.88 159.86 753.16 169.73 753.16 181.49C753.16 193.25 761.98 202.8 773.85 202.8C778.977 202.809 783.948 201.042 787.92 197.8C788.311 197.484 788.803 197.32 789.306 197.341C789.808 197.361 790.286 197.563 790.65 197.91L798.84 206.62C799.179 207.022 799.355 207.536 799.335 208.061C799.314 208.587 799.099 209.085 798.73 209.46C791.902 216.085 782.733 219.744 773.22 219.64C768.256 219.64 763.341 218.662 758.755 216.763C754.168 214.863 750.001 212.079 746.491 208.569C742.981 205.059 740.197 200.892 738.297 196.305C736.398 191.719 735.42 186.804 735.42 181.84C735.42 176.876 736.398 171.961 738.297 167.375C740.197 162.788 742.981 158.621 746.491 155.111C750.001 151.601 754.168 148.817 758.755 146.917C763.341 145.018 768.256 144.04 773.22 144.04V144Z"
        fill="currentColor"
      />
      <path
        d="M811.33 147C811.33 146.47 811.541 145.961 811.916 145.586C812.291 145.211 812.8 145 813.33 145H844.72C850.759 144.987 856.557 147.365 860.846 151.615C865.136 155.866 867.568 161.642 867.61 167.68C867.61 177.34 861.21 185.11 852.07 188.79L866.46 215.46C866.638 215.768 866.731 216.119 866.728 216.475C866.726 216.831 866.628 217.18 866.446 217.486C866.264 217.791 866.003 218.043 865.69 218.214C865.378 218.386 865.026 218.47 864.67 218.46H850.67C850.331 218.462 849.998 218.375 849.704 218.209C849.409 218.042 849.163 217.801 848.99 217.51L834.99 189.69H827.75V216.5C827.733 217.025 827.516 217.523 827.145 217.895C826.774 218.266 826.275 218.483 825.75 218.5H813.33C812.8 218.5 812.291 218.289 811.916 217.914C811.541 217.539 811.33 217.03 811.33 216.5V147ZM843.33 176.4C847.63 176.4 851.33 172.4 851.33 168C851.33 165.878 850.487 163.843 848.987 162.343C847.487 160.843 845.452 160 843.33 160H827.82V176.4H843.33Z"
        fill="currentColor"
      />
      <path
        d="M872.23 215.77L905.1 145.11C905.269 144.778 905.523 144.496 905.835 144.292C906.147 144.089 906.508 143.971 906.88 143.95H907.88C908.254 143.971 908.615 144.089 908.929 144.292C909.243 144.496 909.498 144.778 909.67 145.11L942.53 215.77C942.69 216.063 942.768 216.395 942.755 216.729C942.742 217.063 942.639 217.387 942.456 217.667C942.273 217.947 942.018 218.172 941.718 218.319C941.418 218.466 941.083 218.528 940.75 218.5H929.14C927.25 218.5 926.41 217.87 925.47 215.88L921.69 207.58H893.13L889.35 215.98C889.061 216.741 888.541 217.394 887.864 217.845C887.186 218.297 886.384 218.526 885.57 218.5H874C873.669 218.523 873.338 218.457 873.041 218.308C872.744 218.16 872.492 217.935 872.311 217.656C872.13 217.378 872.028 217.056 872.013 216.724C871.999 216.392 872.074 216.063 872.23 215.77ZM915.39 193.3L907.39 175.98H907.28L899.41 193.3H915.39Z"
        fill="currentColor"
      />
      <path
        d="M951.19 147C951.19 146.47 951.401 145.961 951.776 145.586C952.151 145.211 952.66 145 953.19 145H996.66C997.19 145 997.699 145.211 998.074 145.586C998.449 145.961 998.66 146.47 998.66 147V158.44C998.66 158.97 998.449 159.479 998.074 159.854C997.699 160.229 997.19 160.44 996.66 160.44H967.57V175.56H991.51C992.035 175.577 992.533 175.794 992.905 176.165C993.276 176.536 993.492 177.035 993.51 177.56V189C993.492 189.525 993.276 190.023 992.905 190.395C992.533 190.766 992.035 190.983 991.51 191H967.57V216.5C967.552 217.025 967.336 217.523 966.965 217.895C966.593 218.266 966.095 218.483 965.57 218.5H953.19C952.66 218.5 952.151 218.289 951.776 217.914C951.401 217.539 951.19 217.03 951.19 216.5V147Z"
        fill="currentColor"
      />
      <path
        d="M1019.76 160.44H1004.76C1004.23 160.44 1003.72 160.229 1003.35 159.854C1002.97 159.479 1002.76 158.97 1002.76 158.44V147C1002.76 146.47 1002.97 145.961 1003.35 145.586C1003.72 145.211 1004.23 145 1004.76 145H1051.38C1051.91 145 1052.42 145.211 1052.79 145.586C1053.17 145.961 1053.38 146.47 1053.38 147V158.44C1053.38 158.97 1053.17 159.479 1052.79 159.854C1052.42 160.229 1051.91 160.44 1051.38 160.44H1036.38V216.5C1036.36 217.025 1036.15 217.523 1035.77 217.895C1035.4 218.266 1034.9 218.483 1034.38 218.5H1021.78C1021.26 218.483 1020.76 218.266 1020.39 217.895C1020.01 217.523 1019.8 217.025 1019.78 216.5L1019.76 160.44Z"
        fill="currentColor"
      />
      <path
        d="M433.86 269.44H418.86C418.329 269.44 417.821 269.229 417.446 268.854C417.071 268.479 416.86 267.97 416.86 267.44V256C416.86 255.47 417.071 254.961 417.446 254.586C417.821 254.211 418.329 254 418.86 254H465.48C466.01 254 466.519 254.211 466.894 254.586C467.269 254.961 467.48 255.47 467.48 256V267.44C467.48 267.97 467.269 268.479 466.894 268.854C466.519 269.229 466.01 269.44 465.48 269.44H450.48V325.5C450.462 326.025 450.246 326.524 449.875 326.895C449.503 327.266 449.005 327.483 448.48 327.5H435.88C435.355 327.483 434.856 327.266 434.485 326.895C434.114 326.524 433.897 326.025 433.88 325.5L433.86 269.44Z"
        fill="currentColor"
      />
      <path
        d="M478 256C478 255.47 478.211 254.961 478.586 254.586C478.961 254.211 479.47 254 480 254H523.47C524 254 524.509 254.211 524.884 254.586C525.259 254.961 525.47 255.47 525.47 256V267.44C525.47 267.97 525.259 268.479 524.884 268.854C524.509 269.229 524 269.44 523.47 269.44H494.34V282.44H518.28C518.805 282.457 519.304 282.674 519.675 283.045C520.046 283.416 520.263 283.915 520.28 284.44V295.9C520.28 296.43 520.069 296.939 519.694 297.314C519.319 297.689 518.81 297.9 518.28 297.9H494.34V312.08H523.43C523.96 312.08 524.469 312.291 524.844 312.666C525.219 313.041 525.43 313.55 525.43 314.08V325.5C525.43 326.03 525.219 326.539 524.844 326.914C524.469 327.289 523.96 327.5 523.43 327.5H480C479.47 327.5 478.961 327.289 478.586 326.914C478.211 326.539 478 326.03 478 325.5V256Z"
        fill="currentColor"
      />
      <path
        d="M530 324.77L562.87 254.11C563.039 253.778 563.293 253.496 563.605 253.292C563.917 253.089 564.278 252.971 564.65 252.95H565.65C566.024 252.971 566.385 253.089 566.699 253.292C567.013 253.496 567.268 253.778 567.44 254.11L600.3 324.77C600.46 325.063 600.538 325.395 600.525 325.729C600.512 326.063 600.409 326.387 600.226 326.667C600.044 326.947 599.788 327.172 599.488 327.319C599.188 327.466 598.853 327.528 598.52 327.5H587C585.11 327.5 584.27 326.87 583.32 324.88L579.55 316.58H550.94L547.16 324.98C546.871 325.741 546.351 326.394 545.674 326.845C544.996 327.297 544.194 327.526 543.38 327.5H531.83C531.494 327.535 531.155 327.477 530.849 327.334C530.543 327.19 530.282 326.966 530.094 326.686C529.906 326.405 529.798 326.078 529.781 325.741C529.765 325.403 529.84 325.068 530 324.77ZM573.2 302.3L565.2 284.98H565.09L557.22 302.3H573.2Z"
        fill="currentColor"
      />
      <path
        d="M616.25 254.63C616.323 254.175 616.551 253.76 616.896 253.453C617.24 253.147 617.68 252.969 618.14 252.95H619.82C620.178 252.975 620.525 253.083 620.834 253.265C621.143 253.447 621.405 253.699 621.6 254L646 299.36H646.21L670.53 254C670.725 253.699 670.987 253.447 671.296 253.265C671.605 253.083 671.952 252.975 672.31 252.95H674C674.46 252.969 674.9 253.147 675.244 253.453C675.589 253.76 675.817 254.175 675.89 254.63L687.76 325.19C687.819 325.479 687.81 325.778 687.735 326.063C687.66 326.349 687.521 326.613 687.327 326.836C687.134 327.059 686.893 327.235 686.621 327.35C686.349 327.465 686.055 327.517 685.76 327.5H673.36C672.887 327.482 672.434 327.307 672.072 327.003C671.71 326.698 671.459 326.282 671.36 325.82L666.63 293.38H666.42L648.78 327.38C648.59 327.696 648.332 327.964 648.023 328.165C647.715 328.366 647.365 328.494 647 328.54H645.11C644.74 328.507 644.383 328.384 644.071 328.182C643.759 327.98 643.501 327.705 643.32 327.38L625.58 293.38H625.37L620.75 325.82C620.673 326.293 620.429 326.723 620.062 327.032C619.695 327.34 619.229 327.506 618.75 327.5H606.38C606.085 327.517 605.791 327.465 605.519 327.35C605.247 327.235 605.006 327.059 604.812 326.836C604.619 326.613 604.48 326.349 604.405 326.063C604.33 325.778 604.321 325.479 604.38 325.19L616.25 254.63Z"
        fill="currentColor"
      />
    </svg>