<svg
      width="112"
      height="48"
      viewBox="0 0 279 68"
      fill="none"xmlns="http://www.w3.org/2000/svg">
      <path
        d="M43.5187 0.731905H0.641113L39.4378 67.9297L43.5175 52.7041L30.7738 30.6314H35.4997L38.2266 20.4545H24.8482L19.5106 11.2095H40.7041L43.5209 0.697205"
        fill="currentColor"
      />
      <path
        d="M43.5163 0.731905H86.3939L47.5972 67.9297L43.5175 52.7041L56.2612 30.6314H51.5353L48.8084 20.4545H62.1868L67.5244 11.2095H46.3309L43.5142 0.697205"
        fill="currentColor"
      />
      <path
        d="M84.0752 51.7376V16.5527H107.812V20.7047H88.7313V31.6012H105.244V35.7532H88.7313V51.7376H84.0752Z"
        fill="currentColor"
      />
      <path
        d="M109.486 21.5207V16.5527H113.806V21.5207H109.486ZM109.486 51.7376V26.2491H113.806V51.7376H109.486Z"
        fill="currentColor"
      />
      <path
        d="M117.526 51.7366L126.838 38.4884L118.222 26.248H123.622L127.534 32.2239C128.27 33.36 128.862 34.312 129.31 35.08C130.014 34.024 130.662 33.0879 131.254 32.2718L135.55 26.248H140.71L131.902 38.2482L141.382 51.7366H136.078L130.846 43.8165L129.454 41.6805L122.758 51.7366H117.526Z"
        fill="currentColor"
      />
      <path
        d="M154.415 47.8733L155.039 51.6892C153.823 51.9453 152.735 52.0733 151.775 52.0733C150.207 52.0733 148.991 51.8257 148.127 51.3301C147.262 50.8344 146.654 50.1863 146.303 49.3859C145.951 48.5702 145.775 46.8659 145.775 44.2735V29.6095H142.606V26.2495H145.775V19.9371L150.071 17.3452V26.2495H154.415V29.6095H150.071V44.5137C150.071 45.7458 150.143 46.5379 150.287 46.8899C150.447 47.2419 150.695 47.5214 151.031 47.729C151.383 47.9375 151.879 48.042 152.519 48.042C152.999 48.042 153.631 47.9848 154.415 47.8733Z"
        fill="currentColor"
      />
      <path
        d="M175.319 51.7366V47.9925C173.335 50.8726 170.639 52.3124 167.231 52.3124C165.727 52.3124 164.319 52.0245 163.007 51.4484C161.711 50.8723 160.743 50.1523 160.103 49.2885C159.479 48.4088 159.039 47.3368 158.783 46.0723C158.607 45.2247 158.519 43.8805 158.519 42.0402V26.248H162.839V40.3841C162.839 42.6403 162.927 44.1602 163.103 44.9442C163.375 46.0802 163.951 46.9764 164.831 47.6325C165.711 48.2726 166.799 48.5923 168.095 48.5923C169.391 48.5923 170.607 48.2646 171.743 47.6089C172.879 46.9368 173.679 46.033 174.143 44.8971C174.623 43.7451 174.863 42.0807 174.863 39.9046V26.2484H179.183V51.737L175.319 51.7366Z"
        fill="currentColor"
      />
      <path
        d="M185.927 51.7367V26.2481H189.815V30.112C190.807 28.304 191.719 27.1122 192.551 26.5362C193.399 25.9601 194.327 25.6718 195.335 25.6718C196.792 25.6718 198.272 26.1359 199.776 27.0641L198.288 31.0723C197.232 30.4487 196.175 30.1369 195.119 30.1369C194.175 30.1369 193.327 30.4252 192.575 31.0013C191.823 31.5609 191.287 32.3446 190.967 33.353C190.487 34.8891 190.247 36.5694 190.247 38.3935V51.7375L185.927 51.7367Z"
        fill="currentColor"
      />
      <path
        d="M202.363 51.7376V16.5527H226.484V22.505H209.467V30.8331H224.156V36.785H209.467V51.7376H202.363Z"
        fill="currentColor"
      />
      <path
        d="M233.486 34.0243L227.366 32.9201C228.054 30.4561 229.238 28.6317 230.918 27.4477C232.598 26.2637 235.094 25.6718 238.406 25.6718C241.414 25.6718 243.654 26.0315 245.126 26.7511C246.598 27.4552 247.63 28.3594 248.222 29.4634C248.83 30.5515 249.134 32.5596 249.134 35.4876L249.063 43.3598C249.063 45.5998 249.167 47.2557 249.375 48.3278C249.599 49.3838 250.007 50.5197 250.599 51.7358H243.927C243.751 51.2877 243.535 50.6236 243.279 49.7437C243.167 49.3441 243.087 49.0805 243.039 48.9525C241.887 50.0725 240.655 50.9125 239.343 51.4725C238.031 52.0321 236.631 52.312 235.143 52.312C232.519 52.312 230.447 51.6001 228.926 50.1761C227.422 48.752 226.67 46.952 226.67 44.776C226.67 43.336 227.014 42.0557 227.702 40.9357C228.39 39.7996 229.351 38.9357 230.583 38.3437C231.831 37.7356 233.623 37.2076 235.959 36.7596C239.111 36.168 241.295 35.616 242.511 35.1036V34.4314C242.511 33.1354 242.191 32.2152 241.551 31.6712C240.911 31.1116 239.703 30.8317 237.927 30.8317C236.727 30.8317 235.791 31.0717 235.119 31.5518C234.447 32.0154 233.902 32.8399 233.486 34.0243ZM242.51 39.4963C241.646 39.7843 240.278 40.128 238.406 40.5276C236.534 40.9282 235.31 41.3202 234.734 41.7033C233.854 42.3269 233.414 43.1191 233.414 44.0794C233.414 45.0231 233.766 45.8391 234.47 46.5275C235.174 47.2151 236.07 47.5589 237.158 47.5589C238.374 47.5589 239.534 47.1589 240.638 46.3588C241.454 45.7507 241.99 45.0065 242.246 44.1265C242.422 43.5504 242.51 42.4543 242.51 40.8384V39.4963Z"
        fill="currentColor"
      />
      <path
        d="M253.583 51.7376V16.5527H260.327V29.225C262.407 26.857 264.871 25.6732 267.719 25.6732C270.823 25.6732 273.391 26.8012 275.424 29.0572C277.456 31.2972 278.472 34.5211 278.472 38.7292C278.472 43.0813 277.432 46.4336 275.352 48.7857C273.287 51.1377 270.775 52.3135 267.815 52.3135C266.359 52.3135 264.919 51.9538 263.495 51.2342C262.087 50.498 260.871 49.4179 259.847 47.994V51.7381L253.583 51.7376ZM260.279 38.4415C260.279 41.0815 260.695 43.0335 261.527 44.2975C262.695 46.0896 264.247 46.9853 266.183 46.9853C267.671 46.9853 268.935 46.3536 269.975 45.0896C271.031 43.8095 271.56 41.8013 271.56 39.0653C271.56 36.1532 271.031 34.0573 269.975 32.7773C268.919 31.4812 267.567 30.8331 265.919 30.8331C264.303 30.8331 262.959 31.4653 261.887 32.7293C260.815 33.9774 260.279 35.8814 260.279 38.4415Z"
        fill="currentColor"
      />
    </svg>