<svg
      width="160"
      height="48"
      viewBox="0 0 220 160"
      xmlns="http://www.w3.org/2000/svg">
      <path d="M81.165 78.426c0 5.631-.591 8.443-4.675 8.443-4.264 0-4.937-2.557-4.937-7.668V34.249H38.445v52.796c0 9.184 2.212 16.748 7.395 22.693 5.182 5.938 11.586 8.91 19.587 8.91 5.411 0 10.844-1.66 16.485-4.994-3.108 11.772-10.093 17.658-20.574 17.658-3.28 0-6.412-.92-11.586-2.763 0 0-4.897-1.555-11.307-5.284v27.43s6.376 3.994 11.307 5.852c6.04 2.295 11.986 3.445 17.973 3.445 13.647 0 25.06-5.227 34.675-15.676 8.059-8.785 11.874-20.328 11.874-34.621V34.249H81.165v44.177zM156.23.404c-39.291 3.539-36.619 45.553-36.619 45.553v73.471c21.361 0 32.039-10.254 32.039-24.453v-9.596h15.756V53.422H151.65v-4.277c0-4.995 1.322-8.84 3.539-11.541 2.17-2.636 5.34-3.976 9.291-4.036 2.635.03 7.478.903 8.457 4.702l.072.302V71.88c0 12.233 2.305 22.052 7.258 29.46 3.912 5.799 9.021 10.391 15.498 13.783 6.477 3.385 13.289 5.072 20.604 5.072.807 0 2.273-.023 3.63-.084V86.266c-6.772 0-9.677-1.252-11.833-3.84-2.161-2.583-3.205-7.698-3.205-14.091h11.531V34.249h-10.92c-2.055-12.782-9.73-32.036-38.202-34.181 0 0-3.371-.127-6.013-.034-2.06.074-5.127.37-5.127.37zM44.297 116.768l.024.051c-3.685 2.255-8.012 3.82-11.214 4.648v.174l-.111-.158c-1.961.431-3.905.666-5.775.666-8.07 0-14.536-2.996-19.76-8.989C2.236 107.164 0 99.535 0 90.271V2.214h33.107v88.058c0 9.265 2.209 16.894 7.438 22.888a28.934 28.934 0 0 0 3.752 3.608z" fill="currentColor"/>
    </svg>