<svg
      viewBox="0 0 753 64"
      width="112"
      height="48"
      fill="none"xmlns="http://www.w3.org/2000/svg"
    >
      <path
        fillRule="evenodd"
        clipRule="evenodd"
        d="M275.184 2.78467C275.483 5.37727 275.807 5.53962 281.25 5.82249L287 6.12129V3.08347V0.0456543H280.934C274.906 0.0456543 274.869 0.0625863 275.184 2.78467ZM585.689 1.79464L581.878 3.3504L582.189 28.3412C582.475 51.3429 582.662 53.6099 584.534 56.818C587.741 62.3139 591.813 63.787 603.802 63.788L614.105 63.79L613.802 58.561L613.5 53.332L604.5 52.834L595.5 52.336L595.225 36.6489L594.949 20.9618H603.475H612V15.4837V10.0057H603.5H595V5.02568C595 0.2339 594.896 0.0496383 592.25 0.142267C590.737 0.196051 587.785 0.939071 585.689 1.79464ZM623 3.08347V6.12129L628.75 5.82249C634.193 5.53962 634.517 5.37727 634.816 2.78467C635.131 0.0625863 635.094 0.0456543 629.066 0.0456543H623V3.08347ZM0 36.8979V63.79H9.5H19V42.3759V20.9618H23.965C27.85 20.9618 29.155 21.3811 29.965 22.8881C30.577 24.0285 31 32.7734 31 44.3022V63.79H40.5H50V42.3759V20.9618H54.965C58.85 20.9618 60.155 21.3811 60.965 22.8881C61.577 24.0285 62 32.7734 62 44.3022V63.79H71.569H81.137L80.819 41.5821C80.466 17.0266 80.196 15.9011 73.696 11.9539C70.688 10.1272 68.426 10.0127 35.25 10.0097L0 10.0057V36.8979ZM94.381 11.9081C89.757 14.7158 89 18.2586 89 37.0961C89 54.8837 89.484 57.2273 94 61.302C95.97 63.0789 97.889 63.3279 111.932 63.6257C129.464 63.9972 133.423 63.1277 136.672 58.1915C138.272 55.7602 138.5 53.1726 138.5 37.4407C138.5 9.9599 138.54 10.0037 113.8 10.0097C99.544 10.0127 97.109 10.2507 94.381 11.9081ZM143.964 10.7527C143.944 11.1631 147.432 23.2556 151.714 37.625L159.5 63.7502L169.208 63.7701L178.915 63.79L181.055 56.569C182.844 50.5272 192.821 17.5096 194.597 11.7487C195.073 10.2069 194.348 10.0057 188.317 10.0057L181.5 10.0067L177.677 23.2028C175.574 30.4617 172.91 39.6628 171.758 43.6518C170.605 47.6398 169.346 50.5531 168.961 50.1258C168.575 49.6975 165.653 40.4954 162.467 29.6768L156.674 10.0057H150.337C146.852 10.0057 143.984 10.3424 143.964 10.7527ZM204.888 11.4997C200.308 13.9788 199.5 17.7885 199.5 36.8979C199.5 63.1297 200.135 63.79 225.374 63.79H240.812L242.406 59.1307C243.283 56.568 244 54.1029 244 53.6527C244 53.2025 237.507 52.834 229.571 52.834C213.377 52.834 212 52.321 212 46.2892V42.8739H230.077H248.155L247.827 29.3432L247.5 15.8134L244.234 12.9091L240.968 10.0057L224.234 10.0456C211.736 10.0754 206.839 10.443 204.888 11.4997ZM275 36.8979V63.79H281.5H288V36.8979V10.0057H281.5H275V36.8979ZM298 36.8979V63.79H304.5H311V42.3759V20.9618H321.929C330.53 20.9618 333.192 21.2954 334.429 22.5265C335.752 23.8452 336 27.2247 336 43.9406V63.79H342.598H349.196L348.848 42.1269C348.33 9.90611 348.43 10.0097 317.75 10.0077L298 10.0057V36.8979ZM357 36.8979V63.79H363.5H370V42.3759V20.9618H380.929C389.53 20.9618 392.192 21.2954 393.429 22.5265C394.752 23.8452 395 27.2247 395 43.9406V63.79H401.585H408.169L407.835 42.1269C407.337 9.9081 407.435 10.0097 376.75 10.0077L357 10.0057V36.8979ZM421.871 11.5077C417.167 14.0545 416 19.155 416.002 37.1668C416.004 62.3628 417.341 63.787 441 63.787C465.112 63.787 466.23 62.5072 465.791 35.4039C465.376 9.82046 465.538 9.9848 440.703 10.0456C428.617 10.0754 423.832 10.4469 421.871 11.5077ZM475.622 27.6848C478.56 37.4088 482.18 49.5103 483.668 54.577L486.373 63.79H496.186C501.584 63.79 506 63.5898 506 63.3458C506 63.1018 508.887 53.3539 512.415 41.6827C515.943 30.0125 519.518 18.1112 520.361 15.2347L521.892 10.0057H515.158H508.425L504.103 24.6968C501.725 32.7764 499.059 41.9646 498.178 45.1149C497.297 48.2653 496.333 50.839 496.038 50.835C495.742 50.831 492.826 41.6428 489.557 30.4169L483.615 10.0057H476.948H470.281L475.622 27.6848ZM531.801 14.929C530.931 17.6371 530.471 20.1022 530.777 20.407C531.083 20.7128 538.008 20.9618 546.167 20.9618H561V24.4478V27.9338H546.648C533.352 27.9338 532.046 28.1011 528.898 30.2117C523.969 33.5164 522.567 37.0991 522.576 46.3599C522.582 52.069 523.087 55.2682 524.358 57.6437C527.309 63.1576 530.314 63.79 553.537 63.79H574.137L573.819 41.5821C573.466 17.0266 573.196 15.9011 566.696 11.9539C563.903 10.2577 561.603 10.0127 548.441 10.0097L533.382 10.0057L531.801 14.929ZM622 36.8979V63.79H628.5H635V36.8979V10.0057H628.5H622V36.8979ZM651.096 11.2657C649.774 11.9419 647.749 13.7607 646.596 15.3075C644.706 17.8423 644.47 19.7028 644.195 34.2316C643.847 52.588 644.855 57.8698 649.34 61.2044C651.938 63.1366 653.441 63.292 669.554 63.292H686.962L690.231 60.0381L693.5 56.7841L693.81 37.9427C694.266 10.191 694.096 9.99774 669.3 10.0207C658.751 10.0306 652.701 10.444 651.096 11.2657ZM703 36.8979V63.79H709.5H716V42.3759V20.9618H726.943C741.684 20.9618 741 19.8114 741 44.59V63.79H747H753L752.998 42.1269C752.996 9.6591 753.326 10.0097 722.75 10.0077L703 10.0057V36.8979ZM125.5 36.8979V52.336H114H102.5L102.224 36.617L101.949 20.898L113.724 21.1789L125.5 21.4598V36.8979ZM235.802 26.6888L236.105 31.9178H224.052H212V27.1041C212 24.4558 212.314 21.9767 212.698 21.5952C213.081 21.2128 218.369 21.0265 224.448 21.1799L235.5 21.4598L235.802 26.6888ZM452.5 36.8979V52.336H441H429.5L429.221 37.9397C429.068 30.0214 429.172 22.9478 429.453 22.2197C429.844 21.2038 432.579 20.9618 441.231 21.1779L452.5 21.4598V36.8979ZM681.393 22.5375C681.727 23.404 682 30.0722 682 37.355C682 47.4665 681.67 50.8708 680.605 51.7503C679.687 52.5093 675.502 52.8061 668.355 52.6198L657.5 52.336L657.221 37.9397C657.068 30.0214 657.166 22.9628 657.44 22.2526C657.807 21.2994 660.928 20.9618 669.362 20.9618C678.857 20.9618 680.889 21.2277 681.393 22.5375ZM561 45.8619V52.834H549.2C541.356 52.834 536.998 52.4336 536.2 51.6388C534.942 50.3858 534.515 40.7006 535.667 39.5542C536.033 39.1887 541.883 38.8899 548.667 38.8899H561V45.8619Z"
        fill="currentColor"
      />
    </svg>