<svg
      width="112"
      height="48"
      fill="none"viewBox="0 0 759 224"
      xmlns="http://www.w3.org/2000/svg"
    >
      <path
        fillRule="evenodd"
        clipRule="evenodd"
        d="M84.236 1.54343C70.931 3.25343 65.019 4.49443 50.89 8.54443C37.629 12.3454 17.886 20.6244 7.25 26.8464L0 31.0864L0.018 39.7924C0.054 56.7194 4.884 83.4394 11.625 103.998C26.706 149.996 61.141 193.491 101.583 217.625L110.825 223.14L114.162 221.441C119.591 218.677 139.138 205.391 143.964 201.185L148.427 197.295L142.757 191.624C129.351 178.218 109.222 174.63 92.308 182.632L87.009 185.139L82.396 181.36C79.86 179.281 74.414 173.737 70.294 169.039C38.861 133.193 21.919 94.0324 17.608 47.2604C16.925 39.8494 16.659 40.1104 31 34.1654C60.306 22.0184 86.167 17.2954 117.955 18.2864C146.886 19.1884 167.973 24.0454 195.888 36.2364L205.275 40.3374L204.637 49.3354C204.285 54.2844 203.843 58.4884 203.653 58.6784C203.464 58.8684 198.627 56.8004 192.904 54.0844C171.272 43.8154 148.935 37.9234 124.075 35.9304C101.714 34.1364 75.094 37.3634 53.621 44.4694C37.641 49.7584 36 50.6124 36 53.6464C36 58.8094 38.355 68.9984 39.548 68.9984C40.21 68.9984 43.226 67.9044 46.25 66.5664C53.626 63.3044 69.637 58.4854 79.653 56.5124C106.793 51.1664 140.811 53.7284 167.921 63.1604C175.75 65.8844 197.369 76.0614 199.313 77.9394C200.08 78.6794 198.082 88.0214 195.97 93.5784L195.005 96.1144L190.753 93.5074C162.015 75.8904 125.371 68.0044 92.5 72.3634C78.138 74.2684 61.718 78.7204 51.016 83.6124L43.2 87.1854L45.62 94.3414C49.095 104.62 49.014 104.541 53.614 102.2C60.534 98.6784 75.266 93.8794 85 91.9754C117.716 85.5754 149.172 90.7574 178.193 107.325C183.177 110.17 187.452 113.013 187.693 113.642C188.118 114.749 181.45 128.998 180.507 128.998C180.249 128.998 177.668 127.484 174.769 125.633C141.258 104.234 99.363 101.153 62.655 117.387L56.918 119.924L59.894 125.136C61.531 128.002 63.703 131.463 64.721 132.827L66.573 135.306L73.35 132.595C87.44 126.958 94.298 125.683 111 125.599C124.174 125.532 127.756 125.862 134.871 127.797C147.754 131.302 161.516 137.737 168.88 143.699L171.133 145.524L166.033 152.261C163.228 155.966 160.743 158.998 160.511 158.998C160.279 158.998 158.381 157.83 156.294 156.403C150.39 152.366 142.159 148.437 134.5 146.001C124.534 142.832 105.166 142.093 94.467 144.473C86.134 146.327 77.972 149.428 78.044 150.712C78.067 151.145 80.689 154.359 83.87 157.856L89.653 164.215L96.812 162.475C106.878 160.028 121.891 160.781 131.676 164.222C140.457 167.31 151.536 174.527 156.965 180.696C160.99 185.269 161.026 185.284 163.133 183.397C164.298 182.352 168.837 177.223 173.22 171.998C203.408 136.003 220.989 89.3474 222.205 41.9984L222.5 30.4984L207.5 22.9534C194.922 16.6274 175.149 8.99943 165 6.56043C138.395 0.164435 109.108 -1.65457 84.236 1.54343ZM455.286 38.3904C440.533 43.2054 431.784 54.6754 431.619 69.4174C431.57 73.8294 432.219 78.4664 433.341 81.7184C435.73 88.6464 442.619 96.1734 449.797 99.6984C454.944 102.225 456.524 102.498 466 102.498C477.252 102.498 481.623 101.138 488.481 95.5044L491.461 93.0554L487.536 89.0354C483.664 85.0694 483.583 85.0404 481.555 86.8904C471.951 95.6494 455.023 93.7994 447.555 83.1734C445.209 79.8354 444.508 77.6284 444.186 72.5764C443.686 64.7264 445.189 59.9014 449.684 54.9264C454.365 49.7454 460.187 47.6504 468.441 48.1754C473.78 48.5154 475.794 49.1734 479.505 51.7894L484.042 54.9864L487.771 51.5644L491.5 48.1414L488.632 45.1424C482.207 38.4224 465.533 35.0464 455.286 38.3904ZM721.624 38.6354C712.196 41.5304 704.729 48.0354 700.606 56.9474C697.53 63.5944 697.684 77.6034 700.906 84.2344C703.961 90.5224 709.736 96.3234 716.216 99.6124C723.866 103.496 737.064 104.124 745.332 100.998C748.54 99.7854 752.727 97.4214 754.637 95.7444L758.11 92.6954L754.41 88.9064L750.71 85.1174L747.4 87.6424C742.718 91.2134 735.483 93.1894 730.008 92.3924C717.726 90.6034 710.536 82.2864 710.583 69.9204C710.634 56.5894 719.49 47.9984 733.181 47.9984C738.481 47.9984 743.616 49.7644 747.734 53.0034L750.351 55.0624L754.15 51.3524C758.427 47.1754 758.243 46.4394 751.918 42.4464C743.661 37.2344 731.265 35.6744 721.624 38.6354ZM264 69.9984V101.998H270H276V93.1334V84.2684L288.25 83.7464C301.386 83.1854 305.405 82.0534 311.022 77.3264C320.483 69.3654 320.307 52.7434 310.671 44.2824C304.906 39.2204 299.002 37.9984 280.318 37.9984H264V69.9984ZM366.052 40.7484C359.127 55.7594 339 100.898 339 101.42C339 101.79 341.739 101.959 345.087 101.796L351.174 101.498L353.928 94.9984L356.682 88.4984L373.091 88.2314L389.5 87.9644L392.369 94.9814L395.239 101.998H401.633H408.027L406.628 98.7484C404.929 94.8014 387.633 56.5264 382.677 45.7484L379.114 37.9984H373.217C367.759 37.9984 367.227 38.2024 366.052 40.7484ZM523 69.9984V101.998H529.5H536V69.9984V37.9984H529.5H523V69.9984ZM573 69.9984V101.998H579.5H586V90.0244V78.0504L601.25 77.7744L616.5 77.4984V72.4984V67.4984L601.25 67.2224L586 66.9464V57.4724V47.9984H603.5H621V42.9984V37.9984H597H573V69.9984ZM653 69.9984V101.998H659H665V69.9984V37.9984H659H653V69.9984ZM299.733 50.3164C307.997 54.7024 308.005 67.3584 299.747 71.6294C297.424 72.8304 293.738 73.3224 286.513 73.3964L276.5 73.4984L276.219 60.6334L275.939 47.7694L286.219 48.1844C293.348 48.4724 297.491 49.1264 299.733 50.3164ZM384.281 76.2484C384.883 77.8534 383.955 77.9984 373.052 77.9984H361.167L366.635 65.3194C369.642 58.3464 372.364 52.2194 372.682 51.7034C373.142 50.9604 381.171 67.9494 384.281 76.2484ZM264.75 134.559C264.337 134.984 264 146.506 264 160.165V184.998H277.818C295.514 184.998 300.432 183.661 307.04 177.053C312.377 171.716 313.991 167.52 313.985 158.998C313.979 152.058 310.489 144.236 305.804 140.662C299.199 135.624 295.486 134.698 280 134.228C272.025 133.985 265.163 134.134 264.75 134.559ZM341 159.498V184.998H360H379V180.998V176.998H364.5H350V169.998V162.998H362.5H375V159.529V156.06L362.75 155.779L350.5 155.498L350.204 148.748L349.909 141.998H363.954H378V137.998V133.998H359.5H341V159.498ZM406 159.498V184.998H410.464H414.928L415.214 175.248L415.5 165.498L427.75 165.217L440 164.936V161.498V158.06L427.75 157.779L415.5 157.498L415.208 149.748L414.916 141.998H428.958H443V137.998V133.998H424.5H406V159.498ZM469 159.498V184.998H488H507V180.998V176.998H492.5H478V169.998V162.998H490.5H503V159.529V156.06L490.75 155.779L478.5 155.498L478.204 148.748L477.909 141.998H491.954H506V137.998V133.998H487.5H469V159.498ZM534 159.498V184.998H538.5H543V167.843C543 151.562 543.089 150.77 544.75 152.289C545.712 153.169 552.125 160.872 559 169.407C571.076 184.399 571.627 184.926 575.25 184.962L579 184.998V159.498V133.998H574.524H570.047L569.774 151.102L569.5 168.207L555.612 151.102C541.98 134.313 541.653 133.998 537.862 133.998H534V159.498ZM615.271 135.962C609.8 138.445 607.009 142.976 607.004 149.38C606.998 156.687 610.827 159.885 623.859 163.459C635.245 166.582 637.897 168.546 636.416 172.757C635.894 174.241 634.349 176.05 632.983 176.776C629.312 178.73 618.128 177.788 612.952 175.09C610.646 173.888 608.65 173.038 608.515 173.201C607.56 174.361 606 178.11 606 179.247C606 181.187 611.794 183.726 619.437 185.134C630.613 187.194 641.684 183.393 644.56 176.508C646.521 171.816 646.363 168.105 644.04 164.297C641.646 160.37 638.792 158.856 628.5 156.057C618.408 153.312 616 151.785 616 148.13C616 141.826 625.089 139.297 635.303 142.757L641.106 144.723L642.433 141.611C643.581 138.916 643.547 138.329 642.176 137.239C637.548 133.558 622.173 132.828 615.271 135.962ZM672 159.498V184.998H691H710V180.998V176.998H695.5H681V169.998V162.998H693.5H706V159.529V156.06L693.75 155.779L681.5 155.498L681.204 148.748L680.909 141.998H694.954H709V137.998V133.998H690.5H672V159.498ZM293.536 143.324C298.319 145.174 300.934 147.446 303.044 151.584C307.302 159.936 304.043 170.712 296.038 174.748C292.421 176.572 289.913 176.998 282.788 176.998H274V159.498V141.998L282.25 142.074C286.788 142.116 291.866 142.678 293.536 143.324Z"
        fill="currentColor"
      />
    </svg>