<svg
      width="112"
      height="48"
      fill="none"viewBox="0 0 601 157"
      xmlns="http://www.w3.org/2000/svg"
    >
      <path
        d="M180.35 0.245184C340.75 38.3452 218.15 99.3452 189.35 105.545C232.45 101.345 268.05 83.5452 275.45 59.9452C291.55 8.6452 172.75 -1.45482 180.35 0.245184ZM204.85 25.5452C200.15 24.7452 172.15 41.5452 160.85 63.1452C160.85 63.1452 235.65 70.6452 242.75 47.1452C244.15 42.4452 226.15 29.3452 204.85 25.5452ZM85.1502 96.0452C112.65 90.4452 135.35 89.8452 135.35 89.8452C135.35 89.8452 139.65 51.6452 193.55 23.1452C200.65 19.4452 160.45 16.1452 140.55 21.7452C133.45 23.8452 89.8502 53.3452 85.1502 96.0452ZM567.25 144.745L564.55 155.045C566.35 155.445 568.05 155.745 569.65 155.945C571.35 156.145 572.95 156.345 574.55 156.345C579.85 156.345 584.15 155.445 587.45 153.745C590.75 151.945 593.05 149.445 594.15 145.945C594.75 144.245 594.85 142.845 594.35 141.545C593.95 140.345 592.85 138.745 590.95 137.045C590.75 136.845 590.35 136.445 589.95 136.045C588.05 134.345 587.25 133.145 587.45 132.445C587.65 131.945 588.05 131.545 588.65 131.245C589.35 130.945 590.05 130.845 590.95 130.845C591.85 130.845 592.95 130.945 594.05 131.245C595.25 131.345 596.55 131.745 598.25 132.245L600.55 122.845C598.65 122.445 596.85 122.145 595.05 121.845C593.25 121.745 591.65 121.545 590.05 121.545C585.75 121.545 581.95 122.545 578.75 124.245C575.45 126.045 573.35 128.245 572.35 131.045C571.75 132.545 571.75 134.045 572.25 135.345C572.65 136.645 573.75 138.245 575.35 140.045C575.75 140.445 576.25 141.045 576.85 141.645C578.45 143.345 579.15 144.545 578.95 145.245C578.75 145.745 578.35 146.145 577.75 146.345C577.15 146.545 576.35 146.745 575.35 146.745C574.35 146.745 573.25 146.645 571.95 146.245C570.55 145.945 568.95 145.445 567.25 144.745ZM568.35 131.845L571.35 122.645C569.85 122.245 568.25 121.945 566.65 121.845C565.15 121.645 563.45 121.545 561.75 121.545C555.15 121.545 549.55 123.145 544.85 126.345C540.05 129.445 536.85 133.845 534.85 139.645C533.05 145.045 533.35 149.245 535.75 152.045C538.15 154.945 542.65 156.245 549.15 156.245C550.65 156.245 552.25 156.145 553.95 156.045C555.55 155.945 557.25 155.645 558.95 155.245L563.75 145.245C562.45 145.645 560.95 146.045 559.45 146.245C557.95 146.545 556.35 146.645 554.95 146.645C551.95 146.645 549.95 145.945 548.85 144.845C547.75 143.645 547.65 141.845 548.45 139.445C549.35 136.645 551.05 134.545 553.25 133.045C555.55 131.545 558.25 130.745 561.55 130.745C562.75 130.745 563.85 130.845 564.95 131.045C566.05 131.145 567.25 131.445 568.35 131.845ZM509.65 155.445H523.25C525.95 148.045 528.35 141.545 530.65 135.945C532.85 130.345 534.75 125.745 536.35 122.245H522.75C520.45 128.945 518.05 135.045 515.85 140.745C513.65 146.445 511.55 151.345 509.65 155.445ZM467.25 155.445H479.55C480.55 152.745 481.75 149.445 483.25 145.445L483.35 145.045L486.05 138.345L487.35 146.445C487.35 146.545 487.45 146.945 487.45 147.445C488.05 150.245 488.35 152.845 488.45 155.445H503.65C503.75 155.045 503.85 154.645 504.05 154.245C504.15 153.845 504.45 153.245 504.65 152.445C505.55 150.045 506.55 147.145 507.85 143.845C508.15 143.145 508.35 142.645 508.45 142.345L513.05 130.645C513.45 129.445 513.95 128.345 514.55 127.045C515.05 125.845 515.75 124.145 516.75 122.245H505.15C504.55 124.045 504.05 125.545 503.55 126.845C503.15 128.145 502.65 129.145 502.35 129.945L498.45 139.145L495.65 122.145H480.45C480.25 122.745 479.85 123.645 479.45 124.745C473.85 139.945 469.75 150.145 467.25 155.445ZM442.15 156.145C448.65 156.145 454.35 154.545 459.15 151.345C464.05 148.245 467.45 143.845 469.35 138.145C471.15 132.845 470.75 128.845 468.15 125.945C465.55 123.045 460.95 121.645 454.35 121.645C447.95 121.645 442.35 123.245 437.65 126.445C432.85 129.645 429.55 133.945 427.65 139.545C425.85 144.845 426.25 148.845 428.85 151.745C431.25 154.645 435.65 156.145 442.15 156.145ZM440.95 139.445C441.85 136.645 443.25 134.545 445.05 133.045C446.85 131.545 448.85 130.845 451.15 130.845C453.45 130.845 455.05 131.545 455.85 132.845C456.65 134.145 456.55 136.045 455.75 138.545C454.75 141.145 453.45 143.245 451.75 144.745C449.95 146.245 447.95 146.945 445.65 146.945C443.35 146.945 441.75 146.245 440.95 144.945C440.05 143.645 440.15 141.845 440.95 139.445ZM385.45 155.445H398.25C399.05 153.145 399.75 150.945 400.55 149.045C401.25 147.145 401.75 145.645 402.15 144.645L407.35 131.145C408.05 131.045 408.55 131.045 409.05 130.945C409.55 130.845 409.95 130.845 410.25 130.845C411.75 130.845 412.85 131.045 413.35 131.545C413.85 131.945 413.95 132.645 413.65 133.645C413.25 134.645 412.75 135.345 411.85 135.745C411.05 136.245 409.85 136.445 408.45 136.445C408.25 136.445 407.95 136.345 407.55 136.345C407.05 136.245 406.75 136.245 406.55 136.245L405.85 136.845C405.45 140.445 405.15 143.745 404.85 146.845C404.45 149.845 404.15 152.745 403.75 155.445H417.15C417.25 152.545 417.25 149.945 417.25 147.545C417.25 145.045 417.35 142.845 417.45 140.845C419.85 139.845 421.85 138.745 423.45 137.145C425.05 135.645 426.25 133.745 427.05 131.545C427.55 129.845 427.75 128.345 427.65 127.045C427.45 125.745 426.95 124.645 425.95 123.945C425.25 123.345 424.45 122.945 423.35 122.745C422.25 122.445 420.35 122.345 417.55 122.345H398.45C396.15 129.045 393.75 135.145 391.55 140.845C389.35 146.445 387.25 151.345 385.45 155.445ZM359.25 155.445H372.55C374.55 149.845 376.45 144.845 378.05 140.545C379.65 136.345 380.95 133.245 381.75 131.445C382.05 131.445 382.35 131.445 382.65 131.345C383.05 131.345 383.45 131.345 384.15 131.345H386.15C387.35 131.345 388.25 131.345 389.05 131.445C389.75 131.445 390.55 131.545 391.25 131.545L394.75 122.345H362.75L359.35 131.545C360.85 131.545 362.05 131.445 362.95 131.445C363.75 131.345 364.35 131.345 364.65 131.345C365.15 131.345 365.85 131.345 366.95 131.445C367.95 131.445 368.55 131.445 368.95 131.445L368.65 132.445C367.55 135.645 366.15 139.145 364.65 143.045C362.95 146.945 361.15 151.045 359.25 155.445ZM356.35 131.845L359.35 122.645C357.85 122.245 356.25 121.945 354.65 121.845C353.05 121.645 351.45 121.545 349.75 121.545C343.15 121.545 337.55 123.145 332.85 126.345C328.15 129.445 324.85 133.845 322.85 139.645C321.05 145.045 321.35 149.245 323.75 152.045C326.15 154.945 330.65 156.245 337.15 156.245C338.65 156.245 340.25 156.145 341.95 156.045C343.65 155.945 345.25 155.645 346.95 155.245L351.75 145.245C350.45 145.645 348.95 146.045 347.45 146.245C345.95 146.545 344.35 146.645 342.95 146.645C339.95 146.645 337.95 145.945 336.85 144.845C335.85 143.645 335.75 141.845 336.55 139.445C337.45 136.645 339.15 134.545 341.35 133.045C343.65 131.545 346.35 130.745 349.65 130.745C350.75 130.745 351.95 130.845 353.05 131.045C354.05 131.145 355.25 131.445 356.35 131.845ZM283.35 155.445H312.55L315.95 146.545C314.55 146.645 313.15 146.745 311.65 146.745C310.25 146.845 308.55 146.845 306.75 146.845H299.65L301.25 142.845H305.95H308.05C309.55 142.845 310.85 142.845 311.75 142.845C312.75 142.945 313.75 142.945 314.65 142.945L318.05 134.245H317.75C313.85 134.445 311.35 134.545 310.65 134.545H304.45L306.05 130.545H314.25C315.45 130.545 316.75 130.545 317.95 130.645C319.25 130.745 320.65 130.845 322.05 131.045L325.45 122.245H296.25C293.95 128.745 291.65 134.845 289.45 140.445C287.35 146.145 285.35 151.145 283.35 155.445ZM252.95 155.445H280.15L283.85 146.045C282.05 146.145 280.25 146.145 278.75 146.145C277.25 146.245 275.75 146.245 274.35 146.245C273.15 146.245 272.35 146.245 271.75 146.245C271.15 146.245 270.65 146.145 270.15 146.145C272.25 140.245 274.15 135.245 275.85 131.145C277.55 127.045 278.85 124.045 279.75 122.245H265.95C263.55 128.945 261.25 135.245 259.05 140.745C256.95 146.445 254.85 151.345 252.95 155.445ZM218.75 155.445H247.95L251.35 146.545C249.95 146.645 248.55 146.745 247.15 146.745C245.65 146.845 244.05 146.845 242.15 146.845H235.05L236.75 142.845H241.55H243.55C245.05 142.845 246.35 142.845 247.35 142.845C248.25 142.945 249.35 142.945 250.25 142.945L253.55 134.245H253.25C249.35 134.445 246.95 134.545 246.15 134.545H239.95L241.55 130.545H249.75C250.95 130.545 252.25 130.545 253.55 130.645C254.85 130.745 256.15 130.845 257.55 131.045L260.95 122.245H231.75C229.45 128.745 227.15 134.845 224.95 140.445C222.75 146.145 220.65 151.145 218.75 155.445ZM164.35 155.445H177.15C177.95 153.145 178.75 150.945 179.45 149.045C180.15 147.145 180.65 145.645 181.05 144.645L186.25 131.145C186.95 131.045 187.45 131.045 187.95 130.945C188.45 130.845 188.85 130.845 189.15 130.845C190.75 130.845 191.75 131.045 192.25 131.545C192.75 131.945 192.85 132.645 192.55 133.645C192.25 134.645 191.65 135.345 190.75 135.745C189.85 136.245 188.75 136.445 187.35 136.445C187.15 136.445 186.75 136.345 186.35 136.345C185.95 136.245 185.55 136.245 185.45 136.245L184.75 136.845C184.35 140.445 184.05 143.745 183.65 146.845C183.25 149.845 182.95 152.745 182.55 155.445H196.05C196.05 152.545 196.05 149.945 196.15 147.545C196.25 145.045 196.25 142.845 196.35 140.845C198.75 139.845 200.85 138.745 202.45 137.145C204.05 135.645 205.25 133.745 205.95 131.545C206.55 129.845 206.65 128.345 206.55 127.045C206.35 125.745 205.85 124.645 204.85 123.945C204.15 123.345 203.35 122.945 202.25 122.745C201.15 122.445 199.25 122.345 196.55 122.345H177.45C175.05 129.045 172.75 135.145 170.55 140.845C168.35 146.445 166.25 151.345 164.35 155.445ZM130.15 155.445H159.35L162.75 146.545C161.25 146.645 159.85 146.745 158.45 146.745C156.95 146.845 155.35 146.845 153.55 146.845H146.45L148.05 142.845H152.85H154.85C156.35 142.845 157.65 142.845 158.65 142.845C159.65 142.945 160.65 142.945 161.55 142.945L164.95 134.245H164.65C160.75 134.445 158.25 134.545 157.45 134.545H151.25L152.85 130.545H161.15C162.35 130.545 163.55 130.545 164.85 130.645C166.15 130.745 167.55 130.845 168.95 131.045L172.35 122.245H143.25C140.95 128.745 138.65 134.845 136.35 140.445C134.15 146.145 132.15 151.145 130.15 155.445ZM105.35 155.445H119.35L140.35 122.245H129.65L117.85 141.845L121.35 122.245H108.75L97.3502 141.245L101.25 122.345H90.1502L84.4502 155.545H97.6502L109.05 136.745L105.35 155.445ZM54.6502 156.145C61.1502 156.145 66.8502 154.545 71.6502 151.345C76.5502 148.245 79.9502 143.845 81.8502 138.145C83.6502 132.845 83.2502 128.845 80.6502 125.945C78.0502 123.045 73.4502 121.645 66.8502 121.645C60.4502 121.645 54.9502 123.245 50.1502 126.445C45.3502 129.645 42.0502 133.945 40.1502 139.545C38.3502 144.845 38.7502 148.845 41.3502 151.745C43.7502 154.645 48.2502 156.145 54.6502 156.145ZM53.4502 139.445C54.4502 136.645 55.7502 134.545 57.5502 133.045C59.3502 131.545 61.3502 130.845 63.6502 130.845C65.9502 130.845 67.5502 131.545 68.3502 132.845C69.1502 134.145 69.0502 136.045 68.2502 138.545C67.2502 141.145 65.9502 143.245 64.2502 144.745C62.4502 146.245 60.4502 146.945 58.1502 146.945C55.8502 146.945 54.2502 146.245 53.4502 144.945C52.6502 143.645 52.6502 141.845 53.4502 139.445ZM0.450195 155.445C2.2502 151.245 4.3502 146.445 6.5502 140.745C8.7502 135.145 11.0502 128.945 13.4502 122.245H30.6502C33.2502 122.245 35.1502 122.345 36.2502 122.545C37.2502 122.745 38.1502 123.245 38.8502 123.745C39.8502 124.445 40.3502 125.545 40.5502 126.945C40.7502 128.345 40.5502 129.945 39.9502 131.745C38.6502 135.545 36.4502 138.645 33.4502 140.845C30.4502 143.145 27.0502 144.245 23.3502 144.245C22.8502 144.245 22.2502 144.245 21.7502 144.245C21.2502 144.145 20.7502 144.145 20.1502 144.045L21.0502 136.145L21.7502 135.745H23.1502C24.1502 135.745 24.9502 135.545 25.4502 135.045C26.1502 134.645 26.6502 133.945 26.9502 133.045C27.2502 132.245 27.1502 131.645 26.8502 131.245C26.4502 130.845 25.7502 130.745 24.6502 130.745C24.4502 130.745 24.1502 130.745 23.7502 130.745C23.3502 130.845 22.9502 130.845 22.4502 130.945L17.2502 144.745C16.8502 145.545 16.3502 147.045 15.6502 148.945C14.9502 150.945 14.1502 153.145 13.3502 155.545H0.450195V155.445Z"
        fill="currentColor"
      />
    </svg>