<svg
      width="112"
      height="48"
      viewBox="0 0 547 144"
      fill="none"
      xmlns="http://www.w3.org/2000/svg">
      <path
        fillRule="evenodd"
        clipRule="evenodd"
        d="M331.167 0.667C329.93 1.903 330.488 8.745 331.922 9.936C332.718 10.596 335.471 10.98 338.172 10.808L343 10.5L343.302 5.25L343.605 0H337.719C334.482 0 331.533 0.3 331.167 0.667ZM164.492 12.583C164.477 28.878 161.829 38.696 151.435 61C143.112 78.86 142.069 83.788 142.728 102.124C143.182 114.731 143.068 116.113 141.617 115.672C140.727 115.401 136.064 113.541 131.254 111.538C109.296 102.396 85.317 101.862 46.5 109.65C34.742 112.009 25.063 113.319 17 113.64C10.4 113.904 3.875 114.356 2.5 114.646L0 115.172L2.5 116.475C3.875 117.191 7.813 118.562 11.25 119.52C14.688 120.479 17.5 121.654 17.5 122.132C17.5 122.609 14.377 123 10.559 123C6.741 123 3.362 123.415 3.049 123.921C2.065 125.513 12.623 129.835 22 131.679C28.834 133.022 36.055 133.454 52 133.474C76.012 133.504 79.388 132.885 95.992 125.414C109.146 119.495 111.688 119.223 124.654 122.348C138.743 125.743 148.192 129.121 157.213 133.987C161.305 136.194 164.844 138 165.077 138C165.31 138 165.49 136.313 165.478 134.25C165.454 130.09 163.506 125.39 158.199 116.687C154.364 110.399 152.948 104.79 153.993 100.032C154.357 98.375 156.927 93.539 159.704 89.286C171.762 70.813 176.506 57.866 177.243 41.42C177.774 29.562 176.822 22.882 173.372 14.26C171.107 8.599 169.543 8.222 169.427 13.309C169.361 16.19 169.167 15.974 167.433 11.09C166.377 8.114 165.285 5.452 165.006 5.173C164.728 4.895 164.497 8.229 164.492 12.583ZM221.707 18.992C218.298 20.539 216.987 21.905 215.344 25.621C211.116 35.178 216.531 41.768 231.324 45.068C237.163 46.37 240.5 48.492 240.5 50.901C240.5 55.581 231.634 56.954 226.401 53.085C224.079 51.368 222.336 50.962 218.3 51.199C215.471 51.364 212.991 52.006 212.787 52.624C212.267 54.205 217.167 59.776 220.671 61.588C222.283 62.422 227.316 63.367 231.853 63.687C238.845 64.18 240.816 63.954 244.775 62.203C250.979 59.458 253.77 55.071 253.153 49.034C252.492 42.56 248.11 38.839 238.43 36.534C229.748 34.466 226.5 32.696 226.5 30.034C226.5 25.276 234.554 24.058 239.064 28.134C240.52 29.45 242.658 30 246.314 30C250.708 30 251.5 29.715 251.5 28.135C251.5 25.243 247.576 20.939 243.079 18.896C237.517 16.37 227.384 16.416 221.707 18.992ZM257.813 18.627C257.469 19.522 258.124 23.235 259.267 26.877C260.41 30.52 263.421 40.138 265.958 48.25L270.572 63H275.413C278.076 63 280.72 62.437 281.288 61.75C281.856 61.063 284.035 54.987 286.13 48.25C288.225 41.513 290.211 36 290.544 36C290.877 36 292.874 41.629 294.983 48.509C297.091 55.389 299.385 61.49 300.081 62.067C300.776 62.644 303.479 62.977 306.088 62.808L310.832 62.5L317.166 42C320.649 30.725 323.387 20.6 323.25 19.5C323.077 18.117 322.114 17.399 320.129 17.172C313.536 16.418 313.07 16.988 309.039 30.734C305.333 43.374 303.593 47.928 303.53 45.154C303.514 44.414 301.652 38.001 299.394 30.904L295.288 18H290.55H285.813L281.471 31.981C279.082 39.67 276.986 45.82 276.813 45.646C276.64 45.473 274.695 39.318 272.491 31.97C270.287 24.621 267.925 18.253 267.242 17.819C264.909 16.338 258.48 16.889 257.813 18.627ZM332.167 17.667C331.8 18.033 331.5 28.406 331.5 40.717V63.1L337.25 62.8L343 62.5L343.27 40.571C343.478 23.696 343.247 18.457 342.27 17.837C340.733 16.861 333.1 16.733 332.167 17.667ZM360.828 18.938C355.931 21.162 353.493 24.462 352.871 29.712C351.99 37.142 356.616 41.443 369.152 44.851C377.77 47.193 380.024 48.775 379.062 51.805C377.707 56.073 369.883 56.483 364.309 52.579C362.947 51.625 359.967 51 356.777 51C352.294 51 351.5 51.281 351.5 52.865C351.5 58.5 359.501 63.063 370.582 63.748C380.013 64.332 384.397 63.02 388.45 58.404C390.933 55.576 391.5 54.049 391.5 50.188C391.5 42.155 387.966 39.169 374.5 35.827C367.984 34.209 364.5 32.179 364.5 30C364.5 29.66 365.123 28.531 365.884 27.49C367.749 24.939 373.868 25.156 377.585 27.905C380.622 30.15 388.852 30.857 390.017 28.973C391.187 27.079 387.019 21.671 382.58 19.324C376.915 16.328 366.965 16.152 360.828 18.938ZM406.828 18.938C399.472 22.278 396.504 30.485 400.403 36.701C402.839 40.584 405.991 42.298 415.587 44.957C423.83 47.241 426.01 48.817 425.062 51.805C423.697 56.104 416.212 56.478 410.213 52.548C406.855 50.347 398.161 50.748 397.71 53.124C397.339 55.081 402.814 60.779 406.414 62.182C409.926 63.55 421.67 64.378 426.01 63.564C430.625 62.698 436.206 57.724 437.395 53.418C439.663 45.204 434.578 39.149 423.195 36.509C412.379 34.001 409.715 32.209 411.168 28.423C412.565 24.782 421.466 24.844 424.514 28.517C426.263 30.625 435.352 30.55 436.168 28.422C437.043 26.142 433.516 21.934 428.514 19.289C422.917 16.329 412.93 16.168 406.828 18.938ZM145.27 60.744C144.417 61.71 140.484 67.675 136.529 74C132.575 80.325 128.384 86.527 127.216 87.781C124.479 90.722 117.902 92.547 103 94.5C89.864 96.222 77.5 99.44 77.5 101.137C77.5 101.843 78.453 101.939 80.25 101.415C81.763 100.975 93.8 100.517 107 100.398C120.2 100.279 131.283 100.141 131.629 100.091C132.401 99.979 133.695 96.624 136.486 87.5C137.663 83.65 140.679 75.868 143.187 70.207C147.693 60.038 148.291 57.324 145.27 60.744ZM263.92 80.347C263.612 81.151 263.503 83.315 263.68 85.155C263.991 88.405 264.127 88.5 268.5 88.5H273V84V79.5L268.741 79.192C265.712 78.973 264.32 79.307 263.92 80.347ZM399.7 80.2C398.324 81.576 398.134 85.875 399.364 87.815C399.903 88.665 401.755 89.018 404.599 88.815C408.776 88.516 409.016 88.332 409.318 85.185C409.493 83.361 409.101 81.224 408.446 80.435C407 78.693 401.359 78.541 399.7 80.2ZM322.214 80.619C321.821 81.012 321.5 84.633 321.5 88.667V96H318.122C314.024 96 312.051 98.076 312.907 101.487C313.449 103.645 314.101 104 317.519 104H321.5V116.057C321.5 129.991 322.695 135.894 326.177 139.168C328.33 141.192 329.669 141.5 336.329 141.5H344L344.311 138.284C344.648 134.799 343.855 134.339 336.523 133.77C331.419 133.374 330.532 130.795 330.515 116.298L330.5 104.095L336.75 103.798C342.41 103.528 343.031 103.283 343.327 101.195C343.859 97.437 341.81 96 335.92 96H330.584L330.292 88.25L330 80.5L326.464 80.202C324.52 80.039 322.607 80.226 322.214 80.619ZM222.331 98.892C215.321 103.338 213.78 110 219.761 110C222.003 110 223.573 109.139 225.464 106.874C227.583 104.336 229.01 103.657 233.048 103.269C239.326 102.666 242.572 104.884 242.828 109.95L243 113.356L234.984 114.523C223.978 116.126 220.405 117.471 216.525 121.474C210.257 127.941 212.359 137.19 221.041 141.354C226.364 143.906 236.241 143.307 240.478 140.174C243.495 137.944 243.5 137.943 243.5 140.028C243.5 141.865 244.009 142.078 247.75 141.807L252 141.5L252.275 125.201C252.517 110.864 252.316 108.373 250.609 104.514C247.955 98.513 242.974 96 233.736 96C227.906 96 226.216 96.429 222.331 98.892ZM264.745 97.155C263.834 98.066 263.5 103.82 263.5 118.618C263.5 129.738 263.773 139.548 264.107 140.418C264.517 141.488 265.981 142 268.626 142H272.538L272.269 119.25L272 96.5L268.995 96.205C267.342 96.043 265.43 96.47 264.745 97.155ZM285.645 97.326C284.793 98.352 284.536 104.771 284.73 120.127L285 141.5H289.5H294L294.5 125.159C294.98 109.483 295.096 108.74 297.361 106.909C298.867 105.691 301.281 105 304.029 105C306.398 105 309.048 104.727 309.918 104.393C311.946 103.615 311.992 98.653 309.986 96.988C307.91 95.266 299.758 96.459 296.317 98.988L293.634 100.961L293.317 98.73C293.079 97.057 292.23 96.425 289.915 96.199C288.132 96.025 286.329 96.501 285.645 97.326ZM359.34 98.022C354.799 100.421 351.316 104.718 351.706 107.441C352.142 110.494 359.049 110.997 359.986 108.044C360.347 106.908 361.937 105.308 363.521 104.489C370.393 100.936 378.899 104.295 378.305 110.327C378.002 113.398 377.933 113.434 369.635 114.716C354.08 117.119 347.921 121.884 348.829 130.812C349.908 141.409 364.401 146.749 375.25 140.546C379.29 138.236 379.5 138.212 379.5 140.058C379.5 141.657 380.206 142 383.5 142H387.5V124.148C387.5 107.253 387.378 106.114 385.23 102.898C383.982 101.029 381.394 98.713 379.48 97.752C374.643 95.321 364.187 95.462 359.34 98.022ZM400.73 96.811C399.753 97.451 399.522 102.706 399.73 119.571L400 141.5L404.269 141.808L408.538 142.117L408.269 119.308L408 96.5L405 96.239C403.35 96.096 401.429 96.353 400.73 96.811ZM421.75 96.641C420.803 97.039 420.5 102.597 420.5 119.583V142H425H429.5V127.968C429.5 112.528 430.506 108.353 434.921 105.46C437.855 103.537 444.341 103.31 447.532 105.017C451.461 107.12 452.5 111.828 452.5 127.525V142.115L456.75 141.807L461 141.5V124.424C461 107.371 460.996 107.342 458.184 103.095C454.761 97.927 450.548 96 442.672 96C438.134 96 435.982 96.541 433.313 98.352L429.847 100.704L428.923 98.602C428.02 96.547 424.355 95.544 421.75 96.641ZM481.248 98.069C473.468 102.176 469.337 113.611 471.401 125.326C473.472 137.085 480.226 142.934 491.782 142.978C501.096 143.013 510.5 137.655 510.5 132.313C510.5 130.238 510.036 130 506 130C503.525 130 501.5 130.457 501.5 131.015C501.5 132.645 495.252 135.992 492.2 135.996C486.256 136.004 480.5 130.619 480.5 125.05C480.5 123.075 481.047 123 495.378 123C506.34 123 510.538 122.659 511.33 121.704C512.064 120.82 512.118 118.374 511.5 114.002C510.442 106.515 506.837 100.684 501.516 97.853C496.688 95.285 486.312 95.396 481.248 98.069ZM522.75 96.662C521.802 97.045 521.5 102.586 521.5 119.583V142H525.931H530.362L530.681 126.025C530.982 110.973 531.131 109.919 533.267 107.786C534.913 106.142 537.106 105.381 541.267 105.011L547 104.5V100.5V96.5L541.946 96.623C539.166 96.691 535.541 97.445 533.89 98.298C531.085 99.749 530.809 99.724 529.685 97.925C528.547 96.103 525.508 95.549 522.75 96.662ZM498.519 105.75C500.481 107.519 501.782 109.838 502.166 112.25L502.762 116H491.631H480.5L480.535 113.25C480.652 104.201 491.693 99.596 498.519 105.75ZM243.077 124.25C242.222 129.609 240.327 132.521 236.359 134.573C231.948 136.854 225.031 135.74 222.839 132.395C219.472 127.255 224.32 123.012 235.731 121.111C244.261 119.691 243.834 119.508 243.077 124.25ZM378.5 123.55C378.5 131.327 372.066 136.884 364.653 135.508C353.947 133.522 355.488 124.303 366.895 122.092C369.703 121.548 372.9 120.907 374 120.667C378.171 119.759 378.5 119.97 378.5 123.55Z"
        fill="currentColor"
      />
    </svg>