<svg
      width="200"
      height="48"
      viewBox="0 0 105.83331 27.029753"
      xmlns="http://www.w3.org/2000/svg">
      <g transform="translate(-113.77083,-90.752078)">
        <path
          d="m 159.86813,101.72258 v -8.759477 h -2.89751 v -1.508874 h 7.68887 v 1.508874 h -2.91334 v 8.759477 z"
          fill="currentColor"
        />
        <path
          d="m 167.06811,93.887959 c 0.48924,0 0.92482,0.06804 1.31303,0.200973 0.38511,0.136051 0.71969,0.318473 1.00057,0.55346 0.28092,0.234993 0.51453,0.513263 0.70077,0.837916 0.18925,0.324653 0.32826,0.680224 0.41977,1.06981 0.0917,0.389578 0.13894,0.791538 0.13894,1.21206 0,0.448289 -0.0442,0.87502 -0.12949,1.276951 -0.0853,0.40504 -0.22398,0.7792 -0.41349,1.128561 -0.18925,0.34936 -0.42606,0.64932 -0.7165,0.89664 -0.29036,0.2505 -0.63438,0.44221 -1.02895,0.58438 -0.39768,0.13915 -0.85535,0.2103 -1.37297,0.2103 -0.66284,0 -1.22155,-0.11135 -1.67922,-0.33706 -0.45768,-0.2257 -0.83015,-0.52559 -1.11416,-0.90286 -0.28408,-0.3772 -0.49241,-0.813123 -0.61865,-1.301683 -0.12642,-0.488497 -0.18951,-0.992532 -0.18951,-1.508869 0,-0.389578 0.0442,-0.772981 0.12949,-1.150202 0.0853,-0.377215 0.23037,-0.735876 0.42611,-1.069811 0.19895,-0.333924 0.44186,-0.627663 0.7323,-0.8812 0.29037,-0.253535 0.63439,-0.454513 1.02896,-0.596743 0.39768,-0.145322 0.85535,-0.21645 1.37297,-0.21645 z m -0.0759,1.403747 c -0.23343,0 -0.44503,0.03711 -0.63438,0.111303 -0.18951,0.07422 -0.35355,0.185521 -0.49558,0.327748 -0.142,0.145322 -0.2651,0.315382 -0.36611,0.516356 -0.10114,0.200973 -0.17674,0.429785 -0.22092,0.686412 -0.0472,0.259723 -0.0695,0.538001 -0.0695,0.837916 0,0.417406 0.0378,0.794605 0.11365,1.128557 0.0759,0.333952 0.19257,0.615333 0.35038,0.844071 0.15784,0.228812 0.35036,0.405111 0.5808,0.531881 0.23037,0.12366 0.49553,0.18549 0.8017,0.18549 0.23344,0 0.44503,-0.0402 0.63439,-0.12062 0.1895,-0.0803 0.35355,-0.19474 0.49557,-0.343212 0.142,-0.148386 0.25882,-0.330774 0.35039,-0.544176 0.0914,-0.213334 0.1609,-0.463761 0.20508,-0.74825 0.0472,-0.28442 0.0695,-0.596747 0.0695,-0.933741 0,-0.398859 -0.0347,-0.74825 -0.10727,-1.054356 -0.0725,-0.303011 -0.1798,-0.562731 -0.32829,-0.776078 -0.14839,-0.213335 -0.33774,-0.377212 -0.57127,-0.485427 -0.2337,-0.108213 -0.50506,-0.163864 -0.80806,-0.163864 z"
          fill="currentColor"
        />
        <path
          d="m 175.125,93.887959 c 0.48916,0 0.92475,0.06804 1.31303,0.200973 0.38504,0.136051 0.71961,0.318473 1.00058,0.55346 0.28091,0.234993 0.51445,0.513263 0.70068,0.837916 0.18951,0.324653 0.32827,0.680224 0.41978,1.06981 0.0914,0.389578 0.13893,0.791538 0.13893,1.21206 0,0.448289 -0.0442,0.87502 -0.12948,1.276951 -0.0853,0.40504 -0.22399,0.7792 -0.41342,1.128561 -0.1895,0.34936 -0.42613,0.64932 -0.71649,0.89664 -0.29044,0.2505 -0.63447,0.44221 -1.02903,0.58438 -0.39766,0.13915 -0.85536,0.2103 -1.37298,0.2103 -0.66283,0 -1.22152,-0.11135 -1.67922,-0.33706 -0.45767,-0.2257 -0.83007,-0.52559 -1.11415,-0.90286 -0.28408,-0.3772 -0.49241,-0.813123 -0.61865,-1.301683 -0.12617,-0.488497 -0.18951,-0.992532 -0.18951,-1.508869 0,-0.389578 0.0442,-0.772981 0.12949,-1.150202 0.0853,-0.377215 0.23037,-0.735876 0.42611,-1.069811 0.19895,-0.333924 0.44186,-0.627663 0.7323,-0.8812 0.29036,-0.253535 0.63439,-0.454513 1.02895,-0.596743 0.39768,-0.145322 0.85536,-0.21645 1.37305,-0.21645 z m -0.0759,1.403747 c -0.23343,0 -0.44503,0.03711 -0.63438,0.111303 -0.18951,0.07422 -0.35355,0.185521 -0.49558,0.327748 -0.142,0.145322 -0.2651,0.315382 -0.36611,0.516356 -0.10114,0.200973 -0.17674,0.429785 -0.22092,0.686412 -0.0473,0.259723 -0.0695,0.538001 -0.0695,0.837916 0,0.417406 0.0378,0.794605 0.11365,1.128557 0.0759,0.333952 0.19257,0.615333 0.35038,0.844071 0.15784,0.228812 0.35036,0.405111 0.58081,0.531881 0.23037,0.12366 0.49552,0.18549 0.80169,0.18549 0.23344,0 0.44504,-0.0402 0.63447,-0.12062 0.18925,-0.0803 0.35347,-0.19474 0.4955,-0.343212 0.142,-0.148386 0.25882,-0.330774 0.35038,-0.544176 0.0914,-0.213334 0.1609,-0.463761 0.20508,-0.74825 0.0473,-0.28442 0.0695,-0.596747 0.0695,-0.933741 0,-0.398859 -0.0347,-0.74825 -0.10727,-1.054356 -0.0725,-0.303011 -0.1798,-0.562731 -0.32829,-0.776078 -0.14838,-0.213335 -0.33766,-0.377212 -0.57127,-0.485427 -0.23344,-0.108213 -0.50498,-0.163864 -0.80806,-0.163864 z"
          fill="currentColor"
        />
        <path
          d="m 181.74923,101.72278 h -1.79916 V 90.857675 h 1.79916 z"
          fill="currentColor"
        />
        <path
          d="m 186.02129,100.55422 c 0.28449,0 0.51762,-0.0372 0.69466,-0.11136 0.17648,-0.0742 0.31557,-0.17934 0.41357,-0.31537 0.0973,-0.136021 0.14455,-0.296782 0.14455,-0.485451 0,-0.139141 -0.0312,-0.262795 -0.0973,-0.37409 -0.0661,-0.108187 -0.16423,-0.20718 -0.29665,-0.290637 -0.13306,-0.08351 -0.30949,-0.166979 -0.52709,-0.247379 -0.21837,-0.08035 -0.47977,-0.163864 -0.78589,-0.253535 -0.50883,-0.129819 -0.92848,-0.275161 -1.25958,-0.432812 -0.33179,-0.160824 -0.58724,-0.337062 -0.77036,-0.531878 -0.18312,-0.194767 -0.3122,-0.405014 -0.38787,-0.62763 -0.0764,-0.222606 -0.11417,-0.469981 -0.11417,-0.73898 0,-0.238082 0.0473,-0.494712 0.14533,-0.763711 0.0981,-0.268999 0.25611,-0.516348 0.47369,-0.738967 0.2176,-0.225721 0.51153,-0.405045 0.87711,-0.544189 0.36627,-0.139141 0.82443,-0.210244 1.37313,-0.210244 0.51762,0 0.95685,0.05874 1.31295,0.179341 0.3568,0.120599 0.65076,0.284461 0.88389,0.494718 0.23369,0.210245 0.41354,0.454511 0.53383,0.732788 0.12285,0.278273 0.1987,0.578188 0.23037,0.896658 h -1.77111 c -0.0179,-0.120574 -0.0534,-0.238083 -0.0981,-0.358657 -0.0439,-0.1206 -0.11621,-0.228812 -0.21428,-0.327756 -0.0981,-0.09894 -0.22092,-0.179341 -0.37232,-0.238083 -0.15197,-0.05874 -0.34735,-0.08967 -0.58117,-0.08967 -0.23317,0 -0.41017,0.03402 -0.55544,0.105123 -0.14813,0.0711 -0.26219,0.160799 -0.34397,0.275189 -0.0817,0.114394 -0.12285,0.262811 -0.12285,0.442145 0,0.139141 0.0439,0.265906 0.12898,0.380309 0.0851,0.114393 0.23727,0.219516 0.45142,0.315374 0.21479,0.09585 0.52436,0.197884 0.93116,0.306114 0.51762,0.12987 0.95348,0.275175 1.3035,0.442144 0.35072,0.16698 0.63454,0.343218 0.84604,0.537968 0.21147,0.194818 0.36287,0.417406 0.45139,0.664795 0.085,0.250419 0.12974,0.528702 0.12974,0.837921 0,0.38031 -0.0764,0.717302 -0.23037,1.017262 -0.15477,0.2999 -0.36624,0.54729 -0.64128,0.74825 -0.27435,0.20098 -0.596,0.35247 -0.96901,0.45451 -0.37234,0.10514 -0.77914,0.15765 -1.22783,0.15765 -0.44802,0 -0.87374,-0.0495 -1.24944,-0.14838 -0.37571,-0.0989 -0.70076,-0.25042 -0.97577,-0.4545 -0.27435,-0.20407 -0.49532,-0.46073 -0.66292,-0.76988 -0.16677,-0.30922 -0.26827,-0.667903 -0.29664,-1.075984 h 1.73937 c 0.0411,0.179264 0.0981,0.340102 0.16754,0.485385 0.0723,0.145349 0.17648,0.265909 0.3122,0.364839 0.13919,0.099 0.29057,0.17318 0.45747,0.22577 0.16754,0.0495 0.35411,0.0742 0.55547,0.0742 z"
          fill="currentColor"
        />
        <path
          d="m 195.60131,101.72231 h -1.78667 v -6.307571 h -1.12984 v -1.375921 h 1.12984 V 93.24728 c 0,-0.367943 0.0447,-0.704957 0.12974,-1.007965 0.085,-0.303011 0.22092,-0.568917 0.40409,-0.79154 0.18312,-0.222606 0.41965,-0.395769 0.71022,-0.516356 0.28987,-0.120599 0.64667,-0.179341 1.07645,-0.179341 0.15145,0 0.3061,0.0092 0.45747,0.0309 0.15145,0.01864 0.27435,0.04638 0.36627,0.07422 v 1.419204 c -0.073,-0.03093 -0.15809,-0.04638 -0.25882,-0.05256 -0.1014,-0.0061 -0.20534,-0.0061 -0.30612,-0.0061 -0.29731,0 -0.50207,0.09276 -0.61896,0.275177 -0.11698,0.185522 -0.17699,0.442152 -0.17699,0.769901 v 0.77607 h 1.34204 v 1.375922 h -1.34204 v 6.307568 z"
          fill="currentColor"
        />
        <path
          d="m 200.87481,93.887959 c 0.48922,0 0.92442,0.06804 1.31296,0.200973 0.38516,0.136051 0.71966,0.318473 1.00009,0.55346 0.28111,0.234993 0.51493,0.513263 0.70076,0.837916 0.19002,0.324653 0.32839,0.680224 0.42031,1.06981 0.0912,0.389578 0.13843,0.791538 0.13843,1.21206 0,0.448289 -0.0439,0.87502 -0.12898,1.276951 -0.0858,0.40504 -0.22424,0.7792 -0.41354,1.128561 -0.18976,0.34936 -0.42639,0.64932 -0.71698,0.89664 -0.28988,0.2505 -0.63383,0.44221 -1.02847,0.58438 -0.39801,0.13915 -0.85548,0.2103 -1.3731,0.2103 -0.66291,0 -1.22175,-0.11135 -1.67922,-0.33706 -0.4575,-0.2257 -0.83051,-0.52559 -1.11431,-0.90286 -0.28382,-0.3772 -0.49261,-0.813123 -0.61832,-1.301683 -0.12642,-0.488497 -0.18976,-0.992532 -0.18976,-1.508869 0,-0.389578 0.0447,-0.772981 0.12974,-1.150202 0.085,-0.377215 0.23037,-0.735876 0.4257,-1.069811 0.19947,-0.333924 0.44194,-0.627663 0.73251,-0.8812 0.29057,-0.253535 0.63454,-0.454513 1.02916,-0.596743 0.39734,-0.145322 0.85548,-0.21645 1.37312,-0.21645 z m -0.0764,1.403747 c -0.23318,0 -0.44465,0.03711 -0.63385,0.111303 -0.19002,0.07422 -0.35409,0.185521 -0.49601,0.327748 -0.14201,0.145322 -0.26488,0.315382 -0.36625,0.516356 -0.10062,0.200973 -0.17648,0.429785 -0.22092,0.686412 -0.0472,0.259723 -0.069,0.538001 -0.069,0.837916 0,0.417406 0.0378,0.794605 0.11339,1.128557 0.0756,0.333952 0.19257,0.615333 0.35005,0.844071 0.1581,0.228812 0.35072,0.405111 0.58114,0.531881 0.23037,0.12366 0.49532,0.18549 0.80144,0.18549 0.23369,0 0.44531,-0.0402 0.63451,-0.12062 0.18925,-0.0803 0.35342,-0.19474 0.49532,-0.343212 0.14252,-0.148386 0.2588,-0.330774 0.35072,-0.544176 0.0912,-0.213334 0.1609,-0.463761 0.20534,-0.74825 0.0473,-0.28442 0.069,-0.596747 0.069,-0.933741 0,-0.398859 -0.0345,-0.74825 -0.10753,-1.054356 -0.0723,-0.303011 -0.1798,-0.562731 -0.32772,-0.776078 -0.14865,-0.213335 -0.33787,-0.377212 -0.57169,-0.485427 -0.23318,-0.108213 -0.50477,-0.163864 -0.80818,-0.163864 z"
          fill="currentColor"
        />
        <path
          d="m 205.70096,101.72332 v -6.202442 c 0,-0.327744 0,-0.621475 -0.005,-0.875012 -0.005,-0.253535 -0.0128,-0.454526 -0.023,-0.606029 h 1.7549 c 0.0179,0.108212 0.0317,0.238083 0.0317,0.380309 0,0.142232 0,0.303011 0.005,0.479252 0.008,0.173135 0.008,0.361765 0.008,0.55965 0.069,-0.188612 0.17648,-0.374134 0.3122,-0.553462 0.13587,-0.179341 0.30612,-0.34321 0.50477,-0.494711 0.19947,-0.151502 0.43249,-0.272089 0.70076,-0.364847 0.26828,-0.09585 0.57166,-0.142232 0.90956,-0.142232 v 1.808782 c -0.54939,-0.0092 -1.00078,0.07113 -1.35758,0.238083 -0.35679,0.17007 -0.61832,0.429772 -0.78588,0.77607 -0.16755,0.349394 -0.25285,0.816307 -0.25285,1.403729 v 3.58664 h -1.79883 z"
          fill="currentColor"
        />
        <path
          d="m 159.74063,114.67786 v -10.26839 h 1.84646 v 4.15562 h 4.21056 v -4.15562 h 1.84653 v 10.26839 h -1.84653 v -4.60391 h -4.21056 v 4.60391 z"
          fill="currentColor"
        />
        <path
          d="m 175.36671,106.99101 v 5.44183 c 0,0.34942 0,0.67094 0.005,0.96469 0.005,0.29374 0.0102,0.54417 0.0153,0.75446 0.005,0.21022 0.005,0.38341 0.005,0.52255 h -1.73917 c -0.0102,-0.0804 -0.0179,-0.17316 -0.0317,-0.27522 -0.0102,-0.10509 -0.0179,-0.21949 -0.023,-0.34321 -0.005,-0.12367 -0.0128,-0.25658 -0.023,-0.39572 -0.142,0.25969 -0.32198,0.47613 -0.54287,0.64926 -0.21786,0.17318 -0.46404,0.30301 -0.73859,0.38032 -0.27463,0.0804 -0.58081,0.12055 -0.91538,0.12055 -0.36611,0 -0.69757,-0.0557 -0.9911,-0.16397 -0.29672,-0.10829 -0.54918,-0.27213 -0.7638,-0.48545 -0.21479,-0.21334 -0.37883,-0.4916 -0.4956,-0.82866 -0.11672,-0.34011 -0.17673,-0.73589 -0.17673,-1.19654 v -5.14193 h 1.78651 v 4.84203 c 0,0.21022 0.023,0.40498 0.0695,0.59053 0.0472,0.1855 0.11365,0.34321 0.20509,0.47924 0.0914,0.13603 0.21785,0.24118 0.38192,0.32159 0.16397,0.0803 0.36611,0.12055 0.60913,0.12055 0.32509,0 0.60289,-0.0711 0.83015,-0.21645 0.23037,-0.1453 0.4072,-0.36484 0.53342,-0.66473 0.12617,-0.29997 0.18925,-0.69264 0.18925,-1.18113 v -4.28854 h 1.79916 z"
          fill="currentColor"
        />
        <path
          d="m 176.8043,114.67421 v -5.3058 c 0,-0.48849 0,-0.88428 -0.005,-1.18728 -0.005,-0.303 -0.005,-0.54729 -0.005,-0.73278 0,-0.18554 -0.005,-0.33706 -0.0153,-0.4545 h 1.73911 c 0.0179,0.0897 0.0317,0.1917 0.0378,0.30604 0.005,0.1144 0.0128,0.23193 0.023,0.35254 0.0102,0.12055 0.0153,0.22569 0.0153,0.31537 0.13255,-0.21954 0.29665,-0.41126 0.49553,-0.57513 0.19895,-0.16386 0.43869,-0.29679 0.71649,-0.39578 0.28092,-0.0989 0.60282,-0.14839 0.96901,-0.14839 0.36612,0 0.66251,0.0526 0.9213,0.15771 0.25949,0.10507 0.47709,0.25045 0.64736,0.43288 0.17367,0.1855 0.30612,0.40193 0.39802,0.64926 0.1231,-0.21949 0.2899,-0.42052 0.50479,-0.60601 0.21479,-0.1855 0.4764,-0.33699 0.78589,-0.4545 0.30949,-0.12063 0.65952,-0.17935 1.04468,-0.17935 0.32505,0 0.63454,0.0464 0.92174,0.13603 0.28717,0.0897 0.54936,0.23813 0.77978,0.44836 0.23037,0.21021 0.41357,0.48234 0.54873,0.82244 0.13919,0.3401 0.20534,0.75751 0.20534,1.25533 v 5.17283 h -1.77045 v -4.87293 c 0,-0.19786 -0.0179,-0.38957 -0.0603,-0.56891 -0.0411,-0.17927 -0.10752,-0.337 -0.1987,-0.46998 -0.0919,-0.13291 -0.21836,-0.24422 -0.37301,-0.32774 -0.15732,-0.0835 -0.3595,-0.12678 -0.60276,-0.12678 -0.3345,0 -0.61222,0.0804 -0.82982,0.23806 -0.2176,0.16083 -0.37909,0.38653 -0.47977,0.68027 -0.10139,0.29375 -0.15145,0.64 -0.15145,1.03889 v 4.40909 h -1.75518 v -4.94712 c 0,-0.18861 -0.023,-0.37098 -0.0695,-0.54417 -0.0475,-0.17314 -0.11671,-0.32774 -0.21453,-0.45451 -0.0978,-0.12987 -0.22424,-0.23192 -0.38195,-0.30611 -0.15784,-0.0742 -0.34407,-0.1113 -0.55552,-0.1113 -0.24314,0 -0.46087,0.0433 -0.6471,0.12678 -0.18925,0.0835 -0.34403,0.21029 -0.46396,0.37416 -0.12004,0.16386 -0.21786,0.3772 -0.28092,0.63385 -0.0661,0.25968 -0.0978,0.5689 -0.0978,0.92752 v 4.30399 h -1.78652 z"
          fill="currentColor"
        />
        <path
          d="m 195.12828,109.323 v 3.45366 c 0,0.12987 0,0.27827 0.005,0.44835 0.005,0.17002 0.0128,0.3401 0.023,0.51634 0.0102,0.17313 0.0204,0.3401 0.0378,0.50093 0.0153,0.16074 0.0317,0.303 0.0534,0.4328 H 193.644 c -0.0179,-0.0802 -0.0378,-0.17929 -0.0534,-0.29989 -0.0153,-0.12055 -0.0284,-0.24118 -0.0378,-0.36483 -0.0102,-0.12366 -0.0179,-0.24117 -0.0317,-0.35247 -0.10063,0.21949 -0.25543,0.41741 -0.45747,0.59675 -0.20534,0.17927 -0.45139,0.31537 -0.74807,0.41119 -0.29664,0.0958 -0.64059,0.14226 -1.0386,0.14226 -0.65007,0 -1.16431,-0.11748 -1.54003,-0.35245 -0.37569,-0.23502 -0.64736,-0.53182 -0.80819,-0.8905 -0.16422,-0.35869 -0.24314,-0.72663 -0.24314,-1.10694 0,-0.25969 0.0378,-0.51018 0.11366,-0.7544 0.0764,-0.24429 0.20202,-0.47308 0.38248,-0.68642 0.17648,-0.21333 0.4068,-0.39889 0.68789,-0.55343 0.28112,-0.15462 0.6217,-0.27523 1.02916,-0.3649 0.4068,-0.0897 0.88996,-0.13603 1.4488,-0.13603 h 1.00686 v -0.61222 c 0,-0.17002 -0.0179,-0.32774 -0.0541,-0.46998 -0.0345,-0.1453 -0.0981,-0.27516 -0.18313,-0.39572 -0.085,-0.12062 -0.21147,-0.21029 -0.37234,-0.27523 -0.16422,-0.0649 -0.3818,-0.0958 -0.65615,-0.0958 -0.24314,0 -0.45139,0.0278 -0.61896,0.0835 -0.16703,0.0557 -0.30004,0.1361 -0.39735,0.23814 -0.0981,0.10507 -0.17086,0.22569 -0.22092,0.35861 -0.0506,0.13603 -0.0858,0.28753 -0.10752,0.45451 h -1.7549 c 0.0312,-0.30915 0.10063,-0.60912 0.21428,-0.89664 0.11085,-0.28753 0.2872,-0.54418 0.5271,-0.76988 0.23981,-0.2257 0.55613,-0.40504 0.94737,-0.53802 0.39127,-0.13603 0.87712,-0.20098 1.45825,-0.20098 0.44802,0 0.85551,0.0433 1.22109,0.12676 0.36624,0.0835 0.68181,0.22265 0.94738,0.41125 0.2649,0.18859 0.46694,0.44525 0.60884,0.76988 0.14201,0.32462 0.2148,0.71426 0.2148,1.17187 z m -1.7076,1.97574 v -0.16387 h -1.05416 c -0.38856,0 -0.70076,0.034 -0.9474,0.10508 -0.24263,0.0712 -0.43517,0.16386 -0.57099,0.28448 -0.13588,0.12055 -0.23037,0.25042 -0.27435,0.38957 -0.0472,0.13914 -0.0697,0.28449 -0.0697,0.43288 0,0.20097 0.0439,0.38031 0.12898,0.54418 0.085,0.16386 0.22092,0.29989 0.40409,0.40504 0.18312,0.10514 0.41017,0.1577 0.68792,0.1577 0.32571,0 0.60006,-0.0557 0.8244,-0.16386 0.22373,-0.10826 0.39733,-0.25664 0.51762,-0.44214 0.12285,-0.18557 0.21147,-0.40815 0.26827,-0.67405 0.0567,-0.26286 0.085,-0.55654 0.085,-0.87502 z"
          fill="currentColor"
        />
        <path
          d="m 196.56087,114.67421 v -5.29033 c 0,-0.53796 0,-0.95847 -0.005,-1.26147 -0.005,-0.30301 -0.005,-0.54418 -0.005,-0.71737 0,-0.17314 -0.008,-0.31226 -0.0153,-0.41119 h 1.75492 c 0.0102,0.0495 0.0179,0.13602 0.0317,0.2628 0.0102,0.12366 0.0179,0.25968 0.023,0.40504 0.005,0.14534 0.005,0.27516 0.005,0.39578 0.0919,-0.16083 0.20202,-0.30922 0.32842,-0.44836 0.12642,-0.13914 0.28382,-0.26901 0.47302,-0.38956 0.18977,-0.12063 0.40139,-0.2103 0.64129,-0.27517 0.23982,-0.0649 0.50139,-0.0959 0.78588,-0.0959 0.39733,0 0.75075,0.0587 1.06024,0.17934 0.30949,0.12055 0.56832,0.2999 0.77981,0.53796 0.20815,0.23814 0.36895,0.53188 0.47977,0.88124 0.11008,0.34936 0.16703,0.75751 0.16703,1.22445 v 5.00583 h -1.79883 v -4.69357 c 0,-0.31848 -0.0378,-0.60297 -0.11365,-0.8534 -0.0756,-0.25042 -0.20815,-0.44836 -0.39801,-0.59675 -0.18925,-0.14839 -0.4541,-0.22569 -0.80145,-0.22569 -0.36624,0 -0.66628,0.0804 -0.89941,0.23805 -0.23369,0.16083 -0.40746,0.39268 -0.51762,0.7019 -0.11084,0.30915 -0.16754,0.70804 -0.16754,1.1966 v 4.22974 h -1.79882 z"
          fill="currentColor"
        />
        <path
          d="m 204.49272,105.57006 v -1.76241 h 1.79885 v 1.76241 z m 0,9.10267 v -7.68348 h 1.79885 v 7.68348 z"
          fill="currentColor"
        />
        <path
          d="m 207.11732,108.37068 v -1.37588 h 1.14539 v -2.13657 h 1.78664 v 2.13657 h 1.44881 v 1.37588 h -1.44881 v 4.24522 c 0,0.18858 0.0179,0.3401 0.0603,0.4545 0.0406,0.11439 0.11621,0.20102 0.23037,0.25353 0.11008,0.0557 0.28045,0.0835 0.5048,0.0835 0.0912,0 0.17699,0 0.25284,-0.006 0.0756,-0.006 0.16422,-0.0123 0.26827,-0.0217 v 1.23987 c -0.12361,0.0401 -0.25611,0.0713 -0.40409,0.0958 -0.14864,0.0255 -0.29057,0.0401 -0.42639,0.0465 -0.13843,0.005 -0.25542,0.005 -0.3595,0.005 -0.34734,0 -0.63791,-0.037 -0.87778,-0.11135 -0.23982,-0.0741 -0.43517,-0.18542 -0.58724,-0.33699 -0.15145,-0.15151 -0.26487,-0.34632 -0.33447,-0.59053 -0.0723,-0.24429 -0.10752,-0.54114 -0.10752,-0.8905 v -4.46788 h -1.14539 z"
          fill="currentColor"
        />
        <path
          d="m 212.41785,106.99101 h 1.9218 c 0.19257,0.67716 0.37301,1.29864 0.54331,1.8614 0.16678,0.56269 0.31894,1.06673 0.45747,1.50887 0.13919,0.44214 0.25285,0.84096 0.34395,1.19654 0.0919,0.35253 0.17086,0.65858 0.23726,0.91212 0.0661,0.25353 0.11365,0.46997 0.14456,0.64932 h 0.0153 c 0.0411,-0.17934 0.10063,-0.42356 0.18312,-0.73278 0.0817,-0.30922 0.17648,-0.66169 0.28043,-1.06051 0.10752,-0.39889 0.22782,-0.82866 0.36016,-1.29243 0.13256,-0.46383 0.27435,-0.95543 0.42639,-1.47176 0.15145,-0.51945 0.30612,-1.042 0.4575,-1.57077 h 1.81504 l -2.7023,8.02674 c -0.15145,0.47925 -0.31557,0.88117 -0.48924,1.21202 -0.17367,0.32773 -0.34734,0.59674 -0.52709,0.80083 -0.17648,0.20406 -0.37232,0.36172 -0.58045,0.46998 -0.20815,0.10829 -0.42909,0.18542 -0.66291,0.22245 -0.23369,0.0401 -0.48316,0.0588 -0.74804,0.0588 -0.0508,0 -0.1231,0 -0.21479,-0.005 -0.0912,-0.005 -0.18593,-0.0128 -0.28043,-0.0204 -0.0981,-0.0102 -0.18056,-0.0179 -0.25284,-0.0309 v -1.45008 c 0.10062,0.0102 0.2176,0.0179 0.35005,0.0204 0.13306,0.005 0.24927,0.005 0.35071,0.005 0.18312,0 0.34395,-0.0309 0.47977,-0.0896 0.13587,-0.0587 0.25542,-0.14839 0.3595,-0.26281 0.10139,-0.11442 0.18976,-0.25361 0.26827,-0.4174 0.0789,-0.16396 0.14864,-0.34632 0.22092,-0.54417 l -2.76176,-7.99581 z"
          fill="currentColor"
        />
        <path
          d="m 151.46432,91.375042 h -10.86406 c -4.16818,0 -7.54691,3.340688 -7.54691,7.461911 v 16.036877 h 7.56901 V 98.629296 h 10.84196 z"
          fill="currentColor"
        />
        <path
          d="m 113.77083,91.375042 h 10.86406 c 4.16819,0 7.54691,3.340688 7.54691,7.461911 v 16.036877 h -7.569 V 98.629296 h -10.84197 z"
          fill="currentColor"
        />
      </g>
    </svg>